<mxfile host="65bd71144e">
    <diagram id="AZbJS2ovW1byvKvDDPPj" name="Page-1">
        <mxGraphModel dx="558" dy="443" grid="1" gridSize="10" guides="1" tooltips="1" connect="1" arrows="1" fold="1" page="1" pageScale="1" pageWidth="850" pageHeight="1100" math="0" shadow="0">
            <root>
                <mxCell id="0"/>
                <mxCell id="1" parent="0"/>
                <mxCell id="601" value="" style="rounded=0;whiteSpace=wrap;html=1;labelBackgroundColor=#0000FF;labelBorderColor=#0000FF;fillColor=#dae8fc;strokeColor=#6c8ebf;" vertex="1" parent="1">
                    <mxGeometry x="1085" y="1900" width="345" height="320" as="geometry"/>
                </mxCell>
                <mxCell id="513" value="LOC = &#39;W1&#39;" style="rounded=1;whiteSpace=wrap;html=1;fillColor=none;strokeColor=#FF3333;verticalAlign=top;labelBackgroundColor=default;" vertex="1" parent="1">
                    <mxGeometry x="1072.5" y="1900" width="355" height="390" as="geometry"/>
                </mxCell>
                <mxCell id="593" value="LOC=&#39;FF&#39;" style="rounded=1;whiteSpace=wrap;html=1;fillColor=none;strokeColor=#FF3333;verticalAlign=top;" vertex="1" parent="1">
                    <mxGeometry x="1803.44" y="2850" width="355" height="370" as="geometry"/>
                </mxCell>
                <mxCell id="450" value="LOC = &#39;16WX&#39;" style="rounded=1;whiteSpace=wrap;html=1;fillColor=none;strokeColor=#FF3333;verticalAlign=top;" vertex="1" parent="1">
                    <mxGeometry x="1768" y="1900" width="355" height="450" as="geometry"/>
                </mxCell>
                <mxCell id="126" value="" style="rounded=1;whiteSpace=wrap;html=1;" parent="1" vertex="1">
                    <mxGeometry x="1550" y="370" width="320" height="580" as="geometry"/>
                </mxCell>
                <mxCell id="133" value="" style="whiteSpace=wrap;html=1;shape=mxgraph.basic.pentagon;rounded=0;" parent="1" vertex="1">
                    <mxGeometry x="1630" y="520" width="160" height="160" as="geometry"/>
                </mxCell>
                <mxCell id="2" value="" style="rounded=1;whiteSpace=wrap;html=1;" parent="1" vertex="1">
                    <mxGeometry x="470" y="1222" width="320" height="580" as="geometry"/>
                </mxCell>
                <mxCell id="4" value="&lt;h1&gt;AG&amp;nbsp; &amp;nbsp;&lt;/h1&gt;" style="text;html=1;strokeColor=#666666;fillColor=#f5f5f5;spacing=5;spacingTop=-20;whiteSpace=wrap;overflow=hidden;rounded=0;fontColor=#333333;" parent="1" vertex="1">
                    <mxGeometry x="470" y="1252" width="320" height="40" as="geometry"/>
                </mxCell>
                <mxCell id="5" value="Team Viewer" style="text;html=1;strokeColor=none;fillColor=none;align=center;verticalAlign=middle;whiteSpace=wrap;rounded=0;" parent="1" vertex="1">
                    <mxGeometry x="710" y="1257" width="60" height="30" as="geometry"/>
                </mxCell>
                <mxCell id="6" value="Matchup Analyzer" style="text;html=1;strokeColor=none;fillColor=none;align=center;verticalAlign=middle;whiteSpace=wrap;rounded=0;" parent="1" vertex="1">
                    <mxGeometry x="630" y="1256" width="60" height="30" as="geometry"/>
                </mxCell>
                <mxCell id="7" value="Data&lt;div&gt;Lab&lt;/div&gt;" style="text;html=1;strokeColor=none;fillColor=none;align=center;verticalAlign=middle;whiteSpace=wrap;rounded=0;" parent="1" vertex="1">
                    <mxGeometry x="540" y="1256" width="60" height="30" as="geometry"/>
                </mxCell>
                <mxCell id="13" value="selectedSlot = &#39;bracket&#39;&lt;br&gt;detail_c" style="text;html=1;strokeColor=none;fillColor=none;align=center;verticalAlign=middle;whiteSpace=wrap;rounded=0;" parent="1" vertex="1">
                    <mxGeometry x="587" y="1190" width="140" height="30" as="geometry"/>
                </mxCell>
                <mxCell id="19" value="" style="rounded=1;whiteSpace=wrap;html=1;" parent="1" vertex="1">
                    <mxGeometry x="1100" y="1222" width="320" height="580" as="geometry"/>
                </mxCell>
                <mxCell id="28" value="selectedSlot = &#39;east.R1&#39;&lt;div&gt;panel: {&lt;/div&gt;&lt;div&gt;data: {...},&lt;/div&gt;&lt;div&gt;view: &#39;closed&#39;&lt;/div&gt;&lt;div&gt;}&lt;/div&gt;" style="text;html=1;strokeColor=none;fillColor=none;align=center;verticalAlign=middle;whiteSpace=wrap;rounded=0;" parent="1" vertex="1">
                    <mxGeometry x="1191" y="1170" width="140" height="30" as="geometry"/>
                </mxCell>
                <mxCell id="33" value="" style="rounded=1;whiteSpace=wrap;html=1;" parent="1" vertex="1">
                    <mxGeometry x="1121" y="1350.92" width="120" height="29.08" as="geometry"/>
                </mxCell>
                <mxCell id="37" value="Round of 32&lt;div&gt;&lt;font color=&quot;#000000&quot;&gt;&lt;br&gt;&lt;/font&gt;&lt;div&gt;[Matchup] [Insights]&lt;/div&gt;&lt;/div&gt;" style="rounded=1;whiteSpace=wrap;html=1;" parent="1" vertex="1">
                    <mxGeometry x="1270" y="1360" width="120" height="60" as="geometry"/>
                </mxCell>
                <mxCell id="39" value="1" style="text;html=1;strokeColor=none;fillColor=none;align=center;verticalAlign=middle;whiteSpace=wrap;rounded=0;" parent="1" vertex="1">
                    <mxGeometry x="1121" y="1349.92" width="30" height="30" as="geometry"/>
                </mxCell>
                <mxCell id="40" value="Alabama" style="text;html=1;strokeColor=none;fillColor=none;align=left;verticalAlign=middle;whiteSpace=wrap;rounded=0;" parent="1" vertex="1">
                    <mxGeometry x="1148" y="1350.92" width="60" height="30" as="geometry"/>
                </mxCell>
                <mxCell id="43" value="East Rounds 2/3" style="text;html=1;strokeColor=none;fillColor=none;align=center;verticalAlign=middle;whiteSpace=wrap;rounded=0;" parent="1" vertex="1">
                    <mxGeometry x="1210.5" y="1310" width="101" height="30" as="geometry"/>
                </mxCell>
                <mxCell id="70" value="" style="rounded=1;whiteSpace=wrap;html=1;" parent="1" vertex="1">
                    <mxGeometry x="1140" y="370" width="320" height="580" as="geometry"/>
                </mxCell>
                <mxCell id="71" value="&lt;h1&gt;AG&amp;nbsp; &amp;nbsp;&lt;/h1&gt;" style="text;html=1;strokeColor=#666666;fillColor=#f5f5f5;spacing=5;spacingTop=-20;whiteSpace=wrap;overflow=hidden;rounded=0;fontColor=#333333;" parent="1" vertex="1">
                    <mxGeometry x="1140" y="400" width="320" height="40" as="geometry"/>
                </mxCell>
                <mxCell id="72" value="Team Viewer" style="text;html=1;strokeColor=none;fillColor=none;align=center;verticalAlign=middle;whiteSpace=wrap;rounded=0;" parent="1" vertex="1">
                    <mxGeometry x="1220" y="404" width="60" height="30" as="geometry"/>
                </mxCell>
                <mxCell id="73" value="Matchup Analyzer" style="text;html=1;strokeColor=none;fillColor=none;align=center;verticalAlign=middle;whiteSpace=wrap;rounded=0;" parent="1" vertex="1">
                    <mxGeometry x="1300" y="404" width="60" height="30" as="geometry"/>
                </mxCell>
                <mxCell id="74" value="Team Comp" style="text;html=1;strokeColor=none;fillColor=none;align=center;verticalAlign=middle;whiteSpace=wrap;rounded=0;" parent="1" vertex="1">
                    <mxGeometry x="1380" y="404" width="60" height="30" as="geometry"/>
                </mxCell>
                <mxCell id="75" value="Filters" style="rounded=1;whiteSpace=wrap;html=1;verticalAlign=top;align=left;" parent="1" vertex="1">
                    <mxGeometry x="1160" y="860" width="280" height="80" as="geometry"/>
                </mxCell>
                <mxCell id="76" value="Dimensions" style="text;html=1;strokeColor=none;fillColor=none;align=center;verticalAlign=middle;whiteSpace=wrap;rounded=0;" parent="1" vertex="1">
                    <mxGeometry x="1266" y="908" width="60" height="30" as="geometry"/>
                </mxCell>
                <mxCell id="94" value="&lt;h1 style=&quot;border-color: var(--border-color);&quot;&gt;Team Comp Page&lt;/h1&gt;&lt;h1&gt;&lt;p style=&quot;border-color: var(--border-color); font-size: 12px; font-weight: 400;&quot;&gt;Goals&lt;/p&gt;&lt;p style=&quot;border-color: var(--border-color); font-size: 12px; font-weight: 400;&quot;&gt;1. Compare teams as you want to&lt;/p&gt;&lt;p style=&quot;border-color: var(--border-color); font-size: 12px; font-weight: 400;&quot;&gt;- offense vs offense,&amp;nbsp;&lt;span style=&quot;background-color: initial;&quot;&gt;offense vs defense, offense + defense vs offense + defense, etc&lt;/span&gt;&lt;/p&gt;&lt;p style=&quot;border-color: var(--border-color); font-size: 12px; font-weight: 400;&quot;&gt;&lt;span style=&quot;background-color: initial;&quot;&gt;&lt;br&gt;&lt;/span&gt;&lt;/p&gt;&lt;p style=&quot;border-color: var(--border-color); font-size: 12px; font-weight: 400;&quot;&gt;&lt;span style=&quot;background-color: initial;&quot;&gt;2. Find historically similar teams (offense, defense, pace, age, depth, etc)&lt;/span&gt;&lt;/p&gt;&lt;p style=&quot;border-color: var(--border-color); font-size: 12px; font-weight: 400;&quot;&gt;&lt;span style=&quot;background-color: initial;&quot;&gt;&lt;br&gt;&lt;/span&gt;&lt;/p&gt;&lt;p style=&quot;border-color: var(--border-color); font-size: 12px; font-weight: 400;&quot;&gt;&lt;span style=&quot;background-color: initial;&quot;&gt;&lt;br&gt;&lt;/span&gt;&lt;/p&gt;&lt;/h1&gt;" style="text;html=1;strokeColor=none;fillColor=none;spacing=5;spacingTop=-20;whiteSpace=wrap;overflow=hidden;rounded=0;" parent="1" vertex="1">
                    <mxGeometry x="880" y="433" width="250" height="570" as="geometry"/>
                </mxCell>
                <mxCell id="100" value="" style="whiteSpace=wrap;html=1;shape=mxgraph.basic.pentagon;rounded=0;" parent="1" vertex="1">
                    <mxGeometry x="1220" y="520" width="160" height="160" as="geometry"/>
                </mxCell>
                <mxCell id="101" value="View: Tournament | Mode: Insights" style="verticalLabelPosition=middle;verticalAlign=middle;html=1;shape=mxgraph.basic.patternFillRect;fillStyle=hor;step=5;fillStrokeWidth=0.2;fillStrokeColor=#dddddd;rounded=0;labelPosition=center;align=center;" parent="1" vertex="1">
                    <mxGeometry x="480" y="1728.88" width="300" height="35.13" as="geometry"/>
                </mxCell>
                <mxCell id="104" value="Teams" style="text;html=1;strokeColor=none;fillColor=none;align=center;verticalAlign=middle;whiteSpace=wrap;rounded=0;" parent="1" vertex="1">
                    <mxGeometry x="1350" y="908" width="60" height="32" as="geometry"/>
                </mxCell>
                <mxCell id="105" value="5" style="ellipse;whiteSpace=wrap;html=1;rounded=0;" parent="1" vertex="1">
                    <mxGeometry x="1276" y="880.5" width="40" height="35" as="geometry"/>
                </mxCell>
                <mxCell id="106" value="3" style="ellipse;whiteSpace=wrap;html=1;rounded=0;" parent="1" vertex="1">
                    <mxGeometry x="1360" y="880.5" width="40" height="35" as="geometry"/>
                </mxCell>
                <mxCell id="107" value="" style="whiteSpace=wrap;html=1;shape=mxgraph.basic.pentagon;rounded=0;rotation=60;fillColor=none;strokeColor=#6c8ebf;" parent="1" vertex="1">
                    <mxGeometry x="1255" y="540" width="105" height="120" as="geometry"/>
                </mxCell>
                <mxCell id="108" value="" style="whiteSpace=wrap;html=1;shape=mxgraph.basic.pentagon;rounded=0;rotation=105;fillColor=none;strokeColor=#b85450;" parent="1" vertex="1">
                    <mxGeometry x="1255" y="550" width="105" height="120" as="geometry"/>
                </mxCell>
                <mxCell id="109" value="" style="whiteSpace=wrap;html=1;shape=mxgraph.basic.pentagon;rounded=0;rotation=90;fillColor=none;strokeColor=#82b366;" parent="1" vertex="1">
                    <mxGeometry x="1250" y="570" width="85" height="90" as="geometry"/>
                </mxCell>
                <mxCell id="110" value="&lt;h1&gt;Team Comparison&lt;/h1&gt;" style="text;html=1;strokeColor=none;fillColor=none;spacing=5;spacingTop=-20;whiteSpace=wrap;overflow=hidden;rounded=0;" parent="1" vertex="1">
                    <mxGeometry x="1181" y="450" width="230" height="120" as="geometry"/>
                </mxCell>
                <mxCell id="111" value="Adjusted Offensive Efficiency" style="text;html=1;strokeColor=none;fillColor=none;align=center;verticalAlign=middle;whiteSpace=wrap;rounded=0;" parent="1" vertex="1">
                    <mxGeometry x="1160" y="570" width="60" height="30" as="geometry"/>
                </mxCell>
                <mxCell id="112" value="Adjusted Defensive Efficiency" style="text;html=1;strokeColor=none;fillColor=none;align=center;verticalAlign=middle;whiteSpace=wrap;rounded=0;" parent="1" vertex="1">
                    <mxGeometry x="1393.44" y="560" width="60" height="30" as="geometry"/>
                </mxCell>
                <mxCell id="113" value="Off Rebound %" style="text;html=1;strokeColor=none;fillColor=none;align=center;verticalAlign=middle;whiteSpace=wrap;rounded=0;" parent="1" vertex="1">
                    <mxGeometry x="1340" y="680" width="70" height="40" as="geometry"/>
                </mxCell>
                <mxCell id="114" value="Effective FG%" style="text;html=1;strokeColor=none;fillColor=none;align=center;verticalAlign=middle;whiteSpace=wrap;rounded=0;" parent="1" vertex="1">
                    <mxGeometry x="1190" y="680" width="70" height="40" as="geometry"/>
                </mxCell>
                <mxCell id="115" value="Adjusted Net Efficiency" style="text;html=1;strokeColor=none;fillColor=none;align=center;verticalAlign=middle;whiteSpace=wrap;rounded=0;" parent="1" vertex="1">
                    <mxGeometry x="1260" y="480" width="85" height="40" as="geometry"/>
                </mxCell>
                <mxCell id="116" value="2024 Kansas" style="text;html=1;align=left;verticalAlign=middle;whiteSpace=wrap;rounded=0;fontColor=#99CCFF;" parent="1" vertex="1">
                    <mxGeometry x="1243.5" y="757" width="98" height="30" as="geometry"/>
                </mxCell>
                <mxCell id="117" value="2023 North Carolina" style="text;html=1;strokeColor=none;fillColor=none;align=center;verticalAlign=middle;whiteSpace=wrap;rounded=0;fontColor=#FF9999;" parent="1" vertex="1">
                    <mxGeometry x="1245" y="780" width="110" height="35" as="geometry"/>
                </mxCell>
                <mxCell id="118" value="2024 Houston" style="text;html=1;strokeColor=none;fillColor=none;align=left;verticalAlign=middle;whiteSpace=wrap;rounded=0;fontColor=#B3FF66;" parent="1" vertex="1">
                    <mxGeometry x="1243.5" y="807" width="110" height="30" as="geometry"/>
                </mxCell>
                <mxCell id="124" value="View" style="text;html=1;strokeColor=none;fillColor=none;align=center;verticalAlign=middle;whiteSpace=wrap;rounded=0;" parent="1" vertex="1">
                    <mxGeometry x="1181" y="908" width="60" height="30" as="geometry"/>
                </mxCell>
                <mxCell id="125" value="Radar" style="ellipse;whiteSpace=wrap;html=1;rounded=0;" parent="1" vertex="1">
                    <mxGeometry x="1191" y="880.5" width="40" height="35" as="geometry"/>
                </mxCell>
                <mxCell id="127" value="&lt;h1&gt;AG&amp;nbsp; &amp;nbsp;&lt;/h1&gt;" style="text;html=1;strokeColor=#666666;fillColor=#f5f5f5;spacing=5;spacingTop=-20;whiteSpace=wrap;overflow=hidden;rounded=0;fontColor=#333333;" parent="1" vertex="1">
                    <mxGeometry x="1550" y="400" width="320" height="40" as="geometry"/>
                </mxCell>
                <mxCell id="128" value="Team Viewer" style="text;html=1;strokeColor=none;fillColor=none;align=center;verticalAlign=middle;whiteSpace=wrap;rounded=0;" parent="1" vertex="1">
                    <mxGeometry x="1630" y="404" width="60" height="30" as="geometry"/>
                </mxCell>
                <mxCell id="129" value="Matchup Analyzer" style="text;html=1;strokeColor=none;fillColor=none;align=center;verticalAlign=middle;whiteSpace=wrap;rounded=0;" parent="1" vertex="1">
                    <mxGeometry x="1710" y="404" width="60" height="30" as="geometry"/>
                </mxCell>
                <mxCell id="130" value="Team Comp" style="text;html=1;strokeColor=none;fillColor=none;align=center;verticalAlign=middle;whiteSpace=wrap;rounded=0;" parent="1" vertex="1">
                    <mxGeometry x="1790" y="404" width="60" height="30" as="geometry"/>
                </mxCell>
                <mxCell id="131" value="" style="rounded=1;whiteSpace=wrap;html=1;verticalAlign=top;align=left;" parent="1" vertex="1">
                    <mxGeometry x="1570" y="700" width="280" height="240" as="geometry"/>
                </mxCell>
                <mxCell id="132" value="Dimensions" style="text;html=1;strokeColor=none;fillColor=none;align=center;verticalAlign=middle;whiteSpace=wrap;rounded=0;" parent="1" vertex="1">
                    <mxGeometry x="1676" y="741" width="60" height="30" as="geometry"/>
                </mxCell>
                <mxCell id="134" value="Teams" style="text;html=1;strokeColor=none;fillColor=none;align=center;verticalAlign=middle;whiteSpace=wrap;rounded=0;" parent="1" vertex="1">
                    <mxGeometry x="1760" y="741" width="60" height="32" as="geometry"/>
                </mxCell>
                <mxCell id="135" value="5" style="ellipse;whiteSpace=wrap;html=1;rounded=0;" parent="1" vertex="1">
                    <mxGeometry x="1686" y="713.5" width="40" height="35" as="geometry"/>
                </mxCell>
                <mxCell id="137" value="" style="whiteSpace=wrap;html=1;shape=mxgraph.basic.pentagon;rounded=0;rotation=60;fillColor=none;strokeColor=#6c8ebf;" parent="1" vertex="1">
                    <mxGeometry x="1665" y="540" width="105" height="120" as="geometry"/>
                </mxCell>
                <mxCell id="138" value="" style="whiteSpace=wrap;html=1;shape=mxgraph.basic.pentagon;rounded=0;rotation=105;fillColor=none;strokeColor=#b85450;" parent="1" vertex="1">
                    <mxGeometry x="1665" y="550" width="105" height="120" as="geometry"/>
                </mxCell>
                <mxCell id="139" value="" style="whiteSpace=wrap;html=1;shape=mxgraph.basic.pentagon;rounded=0;rotation=90;fillColor=none;strokeColor=#82b366;" parent="1" vertex="1">
                    <mxGeometry x="1660" y="570" width="85" height="90" as="geometry"/>
                </mxCell>
                <mxCell id="140" value="&lt;h1&gt;Team Comparison&lt;/h1&gt;" style="text;html=1;strokeColor=none;fillColor=none;spacing=5;spacingTop=-20;whiteSpace=wrap;overflow=hidden;rounded=0;" parent="1" vertex="1">
                    <mxGeometry x="1591" y="450" width="230" height="120" as="geometry"/>
                </mxCell>
                <mxCell id="141" value="Adjusted Offensive Efficiency" style="text;html=1;strokeColor=none;fillColor=none;align=center;verticalAlign=middle;whiteSpace=wrap;rounded=0;" parent="1" vertex="1">
                    <mxGeometry x="1570" y="570" width="60" height="30" as="geometry"/>
                </mxCell>
                <mxCell id="142" value="Adjusted Defensive Efficiency" style="text;html=1;strokeColor=none;fillColor=none;align=center;verticalAlign=middle;whiteSpace=wrap;rounded=0;" parent="1" vertex="1">
                    <mxGeometry x="1803.44" y="560" width="60" height="30" as="geometry"/>
                </mxCell>
                <mxCell id="145" value="Adjusted Net Efficiency" style="text;html=1;strokeColor=none;fillColor=none;align=center;verticalAlign=middle;whiteSpace=wrap;rounded=0;" parent="1" vertex="1">
                    <mxGeometry x="1670" y="480" width="85" height="40" as="geometry"/>
                </mxCell>
                <mxCell id="149" value="View" style="text;html=1;strokeColor=none;fillColor=none;align=center;verticalAlign=middle;whiteSpace=wrap;rounded=0;" parent="1" vertex="1">
                    <mxGeometry x="1591" y="741" width="60" height="30" as="geometry"/>
                </mxCell>
                <mxCell id="150" value="Radar" style="ellipse;whiteSpace=wrap;html=1;rounded=0;" parent="1" vertex="1">
                    <mxGeometry x="1601" y="713.5" width="40" height="35" as="geometry"/>
                </mxCell>
                <mxCell id="152" value="" style="sketch=0;pointerEvents=1;shadow=0;dashed=0;html=1;strokeColor=none;fillColor=#505050;labelPosition=center;verticalLabelPosition=bottom;verticalAlign=top;outlineConnect=0;align=center;shape=mxgraph.office.concepts.writing_pencil;rounded=0;fontColor=#B3FF66;" parent="1" vertex="1">
                    <mxGeometry x="1775" y="711" width="30" height="30" as="geometry"/>
                </mxCell>
                <mxCell id="155" value="2024 Kansas" style="text;html=1;strokeColor=none;fillColor=none;align=center;verticalAlign=middle;whiteSpace=wrap;rounded=0;fontColor=#000000;" parent="1" vertex="1">
                    <mxGeometry x="1731" y="817" width="110" height="30" as="geometry"/>
                </mxCell>
                <mxCell id="156" value="2023 North Carolina" style="text;html=1;strokeColor=none;fillColor=none;align=center;verticalAlign=middle;whiteSpace=wrap;rounded=0;fontColor=#000000;" parent="1" vertex="1">
                    <mxGeometry x="1747" y="847" width="73" height="30" as="geometry"/>
                </mxCell>
                <mxCell id="157" value="" style="dashed=0;labelPosition=right;align=left;shape=mxgraph.gmdl.checkbox;strokeColor=none;fillColor=#B0B0B0;strokeWidth=2;aspect=fixed;sketch=0;rounded=0;fontColor=#000000;" parent="1" vertex="1">
                    <mxGeometry x="1726" y="824" width="16" height="16" as="geometry"/>
                </mxCell>
                <mxCell id="158" value="" style="dashed=0;labelPosition=right;align=left;shape=mxgraph.gmdl.checkbox;strokeColor=none;fillColor=#B0B0B0;strokeWidth=2;aspect=fixed;sketch=0;rounded=0;fontColor=#000000;" parent="1" vertex="1">
                    <mxGeometry x="1726" y="854" width="16" height="16" as="geometry"/>
                </mxCell>
                <mxCell id="159" value="" style="dashed=0;labelPosition=right;align=left;shape=mxgraph.gmdl.checkbox;strokeColor=#B0B0B0;fillColor=none;strokeWidth=2;aspect=fixed;sketch=0;rounded=0;fontColor=#000000;" parent="1" vertex="1">
                    <mxGeometry x="1592" y="817" width="16" height="16" as="geometry"/>
                </mxCell>
                <mxCell id="160" value="" style="dashed=0;labelPosition=right;align=left;shape=mxgraph.gmdl.checkbox;strokeColor=#B0B0B0;fillColor=none;strokeWidth=2;aspect=fixed;sketch=0;rounded=0;fontColor=#000000;" parent="1" vertex="1">
                    <mxGeometry x="1592" y="844" width="16" height="16" as="geometry"/>
                </mxCell>
                <mxCell id="161" value="" style="dashed=0;labelPosition=right;align=left;shape=mxgraph.gmdl.checkbox;strokeColor=#B0B0B0;fillColor=none;strokeWidth=2;aspect=fixed;sketch=0;rounded=0;fontColor=#000000;" parent="1" vertex="1">
                    <mxGeometry x="1592" y="870" width="16" height="16" as="geometry"/>
                </mxCell>
                <mxCell id="162" value="" style="dashed=0;labelPosition=right;align=left;shape=mxgraph.gmdl.checkbox;strokeColor=#B0B0B0;fillColor=none;strokeWidth=2;aspect=fixed;sketch=0;rounded=0;fontColor=#000000;" parent="1" vertex="1">
                    <mxGeometry x="1592" y="896" width="16" height="16" as="geometry"/>
                </mxCell>
                <mxCell id="164" value="Selected" style="text;html=1;strokeColor=none;fillColor=none;align=center;verticalAlign=middle;whiteSpace=wrap;rounded=0;fontColor=#000000;" parent="1" vertex="1">
                    <mxGeometry x="1720" y="790" width="110" height="30" as="geometry"/>
                </mxCell>
                <mxCell id="165" value="Ho" style="text;html=1;strokeColor=default;fillColor=none;align=center;verticalAlign=middle;whiteSpace=wrap;rounded=0;fontColor=#000000;" parent="1" vertex="1">
                    <mxGeometry x="1609" y="785" width="90" height="25" as="geometry"/>
                </mxCell>
                <mxCell id="166" value="2024 Houston" style="text;html=1;strokeColor=none;fillColor=none;align=center;verticalAlign=middle;whiteSpace=wrap;rounded=0;fontColor=#000000;" parent="1" vertex="1">
                    <mxGeometry x="1605" y="814" width="110" height="30" as="geometry"/>
                </mxCell>
                <mxCell id="167" value="2024 Houston Baptist" style="text;html=1;strokeColor=none;fillColor=none;align=center;verticalAlign=middle;whiteSpace=wrap;rounded=0;fontColor=#000000;" parent="1" vertex="1">
                    <mxGeometry x="1605" y="840" width="110" height="30" as="geometry"/>
                </mxCell>
                <mxCell id="168" value="2024 Hofstra" style="text;html=1;strokeColor=none;fillColor=none;align=center;verticalAlign=middle;whiteSpace=wrap;rounded=0;fontColor=#000000;" parent="1" vertex="1">
                    <mxGeometry x="1604" y="867" width="110" height="30" as="geometry"/>
                </mxCell>
                <mxCell id="169" value="2023 Houston" style="text;html=1;strokeColor=none;fillColor=none;align=center;verticalAlign=middle;whiteSpace=wrap;rounded=0;fontColor=#000000;" parent="1" vertex="1">
                    <mxGeometry x="1607" y="897" width="110" height="33" as="geometry"/>
                </mxCell>
                <mxCell id="180" style="edgeStyle=none;html=1;exitX=0.75;exitY=1;exitDx=0;exitDy=0;entryX=0.25;entryY=0;entryDx=0;entryDy=0;" parent="1" source="170" target="176" edge="1">
                    <mxGeometry relative="1" as="geometry"/>
                </mxCell>
                <mxCell id="170" value="East Region&lt;div&gt;&amp;lt;Preview&amp;gt;&lt;/div&gt;" style="rounded=1;html=1;shadow=0;dashed=0;whiteSpace=wrap;fontSize=10;fillColor=#E6E6E6;align=center;strokeColor=#E6E6E6;fontColor=#333333;" parent="1" vertex="1">
                    <mxGeometry x="494.5" y="1379" width="105.5" height="63.44" as="geometry"/>
                </mxCell>
                <mxCell id="181" style="edgeStyle=none;html=1;exitX=0.25;exitY=1;exitDx=0;exitDy=0;entryX=0.75;entryY=0;entryDx=0;entryDy=0;" parent="1" source="171" target="176" edge="1">
                    <mxGeometry relative="1" as="geometry"/>
                </mxCell>
                <mxCell id="171" value="West Region&lt;div&gt;&amp;lt;Preview&amp;gt;&lt;/div&gt;" style="rounded=1;html=1;shadow=0;dashed=0;whiteSpace=wrap;fontSize=10;fillColor=#E6E6E6;align=center;strokeColor=#E6E6E6;fontColor=#333333;" parent="1" vertex="1">
                    <mxGeometry x="664.5" y="1382" width="105.5" height="63.44" as="geometry"/>
                </mxCell>
                <mxCell id="178" style="edgeStyle=none;html=1;exitX=0.75;exitY=0;exitDx=0;exitDy=0;entryX=0.25;entryY=1;entryDx=0;entryDy=0;" parent="1" source="172" target="176" edge="1">
                    <mxGeometry relative="1" as="geometry"/>
                </mxCell>
                <mxCell id="172" value="South Region&lt;div&gt;&amp;lt;Preview&amp;gt;&lt;/div&gt;" style="rounded=1;html=1;shadow=0;dashed=0;whiteSpace=wrap;fontSize=10;fillColor=#E6E6E6;align=center;strokeColor=#E6E6E6;fontColor=#333333;" parent="1" vertex="1">
                    <mxGeometry x="494.5" y="1578.12" width="105.5" height="53.88" as="geometry"/>
                </mxCell>
                <mxCell id="179" style="edgeStyle=none;html=1;exitX=0.25;exitY=0;exitDx=0;exitDy=0;entryX=0.75;entryY=1;entryDx=0;entryDy=0;" parent="1" source="173" target="176" edge="1">
                    <mxGeometry relative="1" as="geometry"/>
                </mxCell>
                <mxCell id="173" value="Midwest Region&lt;br&gt;&amp;lt;Preview&amp;gt;" style="rounded=1;html=1;shadow=0;dashed=0;whiteSpace=wrap;fontSize=10;fillColor=#E6E6E6;align=center;strokeColor=#E6E6E6;fontColor=#333333;" parent="1" vertex="1">
                    <mxGeometry x="665" y="1579" width="105.5" height="53" as="geometry"/>
                </mxCell>
                <mxCell id="176" value="&amp;lt; Final Four Insights &amp;gt;" style="rounded=1;html=1;shadow=0;dashed=0;whiteSpace=wrap;fontSize=10;fillColor=#E6E6E6;align=center;strokeColor=#E6E6E6;fontColor=#333333;" parent="1" vertex="1">
                    <mxGeometry x="545" y="1475.28" width="170" height="73.44" as="geometry"/>
                </mxCell>
                <mxCell id="182" value="" style="rounded=1;whiteSpace=wrap;html=1;" parent="1" vertex="1">
                    <mxGeometry x="1990" y="380" width="320" height="580" as="geometry"/>
                </mxCell>
                <mxCell id="184" value="&lt;h1&gt;AG&amp;nbsp; &amp;nbsp;&lt;/h1&gt;" style="text;html=1;strokeColor=#666666;fillColor=#f5f5f5;spacing=5;spacingTop=-20;whiteSpace=wrap;overflow=hidden;rounded=0;fontColor=#333333;" parent="1" vertex="1">
                    <mxGeometry x="1990" y="410" width="320" height="40" as="geometry"/>
                </mxCell>
                <mxCell id="185" value="Team Viewer" style="text;html=1;strokeColor=none;fillColor=none;align=center;verticalAlign=middle;whiteSpace=wrap;rounded=0;" parent="1" vertex="1">
                    <mxGeometry x="2070" y="414" width="60" height="30" as="geometry"/>
                </mxCell>
                <mxCell id="186" value="Matchup Analyzer" style="text;html=1;strokeColor=none;fillColor=none;align=center;verticalAlign=middle;whiteSpace=wrap;rounded=0;" parent="1" vertex="1">
                    <mxGeometry x="2150" y="414" width="60" height="30" as="geometry"/>
                </mxCell>
                <mxCell id="187" value="Team Comp" style="text;html=1;strokeColor=none;fillColor=none;align=center;verticalAlign=middle;whiteSpace=wrap;rounded=0;" parent="1" vertex="1">
                    <mxGeometry x="2230" y="414" width="60" height="30" as="geometry"/>
                </mxCell>
                <mxCell id="188" value="" style="rounded=1;whiteSpace=wrap;html=1;verticalAlign=top;align=left;" parent="1" vertex="1">
                    <mxGeometry x="2010" y="750" width="280" height="200" as="geometry"/>
                </mxCell>
                <mxCell id="189" value="Dimensions" style="text;html=1;strokeColor=none;fillColor=none;align=center;verticalAlign=middle;whiteSpace=wrap;rounded=0;" parent="1" vertex="1">
                    <mxGeometry x="2115.5" y="801" width="60" height="30" as="geometry"/>
                </mxCell>
                <mxCell id="190" value="Teams" style="text;html=1;strokeColor=none;fillColor=none;align=center;verticalAlign=middle;whiteSpace=wrap;rounded=0;" parent="1" vertex="1">
                    <mxGeometry x="2199.5" y="801" width="60" height="32" as="geometry"/>
                </mxCell>
                <mxCell id="191" value="3" style="ellipse;whiteSpace=wrap;html=1;rounded=0;" parent="1" vertex="1">
                    <mxGeometry x="2125.5" y="773.5" width="40" height="35" as="geometry"/>
                </mxCell>
                <mxCell id="195" value="&lt;h1&gt;Team Comparison&lt;/h1&gt;" style="text;html=1;strokeColor=none;fillColor=none;spacing=5;spacingTop=-20;whiteSpace=wrap;overflow=hidden;rounded=0;" parent="1" vertex="1">
                    <mxGeometry x="2031" y="460" width="230" height="40" as="geometry"/>
                </mxCell>
                <mxCell id="199" value="View" style="text;html=1;strokeColor=none;fillColor=none;align=center;verticalAlign=middle;whiteSpace=wrap;rounded=0;" parent="1" vertex="1">
                    <mxGeometry x="2030.5" y="801" width="60" height="30" as="geometry"/>
                </mxCell>
                <mxCell id="200" value="Scatter" style="ellipse;whiteSpace=wrap;html=1;rounded=0;" parent="1" vertex="1">
                    <mxGeometry x="2029.5" y="773.5" width="60" height="35" as="geometry"/>
                </mxCell>
                <mxCell id="201" value="" style="sketch=0;pointerEvents=1;shadow=0;dashed=0;html=1;strokeColor=none;fillColor=#505050;labelPosition=center;verticalLabelPosition=bottom;verticalAlign=top;outlineConnect=0;align=center;shape=mxgraph.office.concepts.writing_pencil;rounded=0;fontColor=#B3FF66;" parent="1" vertex="1">
                    <mxGeometry x="2214.5" y="771" width="30" height="30" as="geometry"/>
                </mxCell>
                <mxCell id="203" value="Adj Def Efficiency" style="text;html=1;strokeColor=none;fillColor=none;align=center;verticalAlign=middle;whiteSpace=wrap;rounded=0;fontColor=#000000;" parent="1" vertex="1">
                    <mxGeometry x="2066.25" y="867.25" width="133.5" height="30" as="geometry"/>
                </mxCell>
                <mxCell id="216" value="Tournament Performance" style="text;html=1;strokeColor=none;fillColor=none;align=center;verticalAlign=middle;whiteSpace=wrap;rounded=0;fontColor=#000000;" parent="1" vertex="1">
                    <mxGeometry x="2065.5" y="893" width="172.5" height="30" as="geometry"/>
                </mxCell>
                <mxCell id="217" value="Adjusted Off Efficiency" style="text;html=1;strokeColor=none;fillColor=none;align=center;verticalAlign=middle;whiteSpace=wrap;rounded=0;fontColor=#000000;" parent="1" vertex="1">
                    <mxGeometry x="2064.25" y="838.75" width="160.5" height="30" as="geometry"/>
                </mxCell>
                <mxCell id="219" value="Z" style="rounded=0;whiteSpace=wrap;html=1;" parent="1" vertex="1">
                    <mxGeometry x="2042" y="898" width="24" height="20" as="geometry"/>
                </mxCell>
                <mxCell id="220" value="Y" style="rounded=0;whiteSpace=wrap;html=1;" parent="1" vertex="1">
                    <mxGeometry x="2042" y="870" width="24" height="20" as="geometry"/>
                </mxCell>
                <mxCell id="221" value="X" style="rounded=0;whiteSpace=wrap;html=1;" parent="1" vertex="1">
                    <mxGeometry x="2042" y="843" width="24" height="20" as="geometry"/>
                </mxCell>
                <mxCell id="222" value="" style="endArrow=classic;startArrow=classic;html=1;exitX=0.813;exitY=0.368;exitDx=0;exitDy=0;exitPerimeter=0;" parent="1" edge="1">
                    <mxGeometry width="50" height="50" relative="1" as="geometry">
                        <mxPoint x="2234.58" y="630.1099999999998" as="sourcePoint"/>
                        <mxPoint x="2054.42" y="630.0033333333332" as="targetPoint"/>
                    </mxGeometry>
                </mxCell>
                <mxCell id="224" value="" style="endArrow=classic;startArrow=classic;html=1;" parent="1" edge="1">
                    <mxGeometry width="50" height="50" relative="1" as="geometry">
                        <mxPoint x="2143.87" y="700" as="sourcePoint"/>
                        <mxPoint x="2143.87" y="550.0033333333332" as="targetPoint"/>
                    </mxGeometry>
                </mxCell>
                <mxCell id="225" value="" style="endArrow=classic;startArrow=classic;html=1;verticalAlign=top;" parent="1" edge="1">
                    <mxGeometry width="50" height="50" relative="1" as="geometry">
                        <mxPoint x="2204" y="671" as="sourcePoint"/>
                        <mxPoint x="2074" y="581" as="targetPoint"/>
                    </mxGeometry>
                </mxCell>
                <mxCell id="226" value="" style="endArrow=none;html=1;entryX=0.5;entryY=1;entryDx=0;entryDy=0;exitX=0.5;exitY=0;exitDx=0;exitDy=0;" parent="1" source="228" target="145" edge="1">
                    <mxGeometry width="50" height="50" relative="1" as="geometry">
                        <mxPoint x="1860" y="730" as="sourcePoint"/>
                        <mxPoint x="1910" y="680" as="targetPoint"/>
                    </mxGeometry>
                </mxCell>
                <mxCell id="232" style="edgeStyle=none;html=1;exitX=0;exitY=0;exitDx=0;exitDy=0;entryX=1;entryY=0.25;entryDx=0;entryDy=0;" parent="1" source="228" target="141" edge="1">
                    <mxGeometry relative="1" as="geometry"/>
                </mxCell>
                <mxCell id="228" value="" style="ellipse;whiteSpace=wrap;html=1;aspect=fixed;" parent="1" vertex="1">
                    <mxGeometry x="1704" y="605" width="10" height="10" as="geometry"/>
                </mxCell>
                <mxCell id="229" style="edgeStyle=none;html=1;exitX=1;exitY=0;exitDx=0;exitDy=0;entryX=1;entryY=0.365;entryDx=0;entryDy=0;entryPerimeter=0;" parent="1" source="228" target="133" edge="1">
                    <mxGeometry relative="1" as="geometry"/>
                </mxCell>
                <mxCell id="230" style="edgeStyle=none;html=1;exitX=1;exitY=1;exitDx=0;exitDy=0;entryX=0.81;entryY=1;entryDx=0;entryDy=0;entryPerimeter=0;" parent="1" source="228" target="133" edge="1">
                    <mxGeometry relative="1" as="geometry"/>
                </mxCell>
                <mxCell id="231" style="edgeStyle=none;html=1;exitX=0;exitY=1;exitDx=0;exitDy=0;entryX=0.19;entryY=1;entryDx=0;entryDy=0;entryPerimeter=0;" parent="1" source="228" target="133" edge="1">
                    <mxGeometry relative="1" as="geometry"/>
                </mxCell>
                <mxCell id="233" value="" style="ellipse;whiteSpace=wrap;html=1;aspect=fixed;" parent="1" vertex="1">
                    <mxGeometry x="2105.5" y="580" width="10" height="10" as="geometry"/>
                </mxCell>
                <mxCell id="234" value="" style="ellipse;whiteSpace=wrap;html=1;aspect=fixed;" parent="1" vertex="1">
                    <mxGeometry x="2105.5" y="610.44" width="10" height="10" as="geometry"/>
                </mxCell>
                <mxCell id="235" value="" style="ellipse;whiteSpace=wrap;html=1;aspect=fixed;" parent="1" vertex="1">
                    <mxGeometry x="2044" y="924" width="21" height="21" as="geometry"/>
                </mxCell>
                <mxCell id="236" value="Kansas" style="text;html=1;align=center;verticalAlign=middle;whiteSpace=wrap;rounded=0;" parent="1" vertex="1">
                    <mxGeometry x="2109" y="570" width="60" height="30" as="geometry"/>
                </mxCell>
                <mxCell id="239" value="Seed" style="text;html=1;align=center;verticalAlign=middle;whiteSpace=wrap;rounded=0;" parent="1" vertex="1">
                    <mxGeometry x="2071.5" y="918" width="60" height="30" as="geometry"/>
                </mxCell>
                <mxCell id="240" value="x" style="text;html=1;align=center;verticalAlign=middle;whiteSpace=wrap;rounded=0;" parent="1" vertex="1">
                    <mxGeometry x="2181.5" y="662" width="60" height="30" as="geometry"/>
                </mxCell>
                <mxCell id="241" value="y" style="text;html=1;align=center;verticalAlign=middle;whiteSpace=wrap;rounded=0;" parent="1" vertex="1">
                    <mxGeometry x="2221.5" y="615" width="60" height="30" as="geometry"/>
                </mxCell>
                <mxCell id="243" value="z" style="text;html=1;align=center;verticalAlign=middle;whiteSpace=wrap;rounded=0;" parent="1" vertex="1">
                    <mxGeometry x="2114.5" y="527" width="60" height="30" as="geometry"/>
                </mxCell>
                <mxCell id="244" value="&lt;h1 style=&quot;border-color: var(--border-color);&quot;&gt;Bracket Page&lt;/h1&gt;&lt;h1&gt;&lt;p style=&quot;border-color: var(--border-color); font-size: 12px; font-weight: 400;&quot;&gt;Goals&lt;/p&gt;&lt;p style=&quot;border-color: var(--border-color); font-size: 12px; font-weight: 400;&quot;&gt;1. View the bracket in its current state (game result OR game location and time)&lt;/p&gt;&lt;p style=&quot;border-color: var(--border-color); font-size: 12px; font-weight: 400;&quot;&gt;2. View predictions by models (selectable list)&lt;/p&gt;&lt;p style=&quot;border-color: var(--border-color); font-size: 12px; font-weight: 400;&quot;&gt;3. Preview matchup details between two teams or group compare of the potential slot fillers&lt;/p&gt;&lt;p style=&quot;border-color: var(--border-color); font-size: 12px; font-weight: 400;&quot;&gt;4. Provide easy way for people to share &quot;findings&quot;&lt;/p&gt;&lt;/h1&gt;" style="text;html=1;strokeColor=none;fillColor=none;spacing=5;spacingTop=-20;whiteSpace=wrap;overflow=hidden;rounded=0;" parent="1" vertex="1">
                    <mxGeometry x="160" y="1242" width="250" height="570" as="geometry"/>
                </mxCell>
                <mxCell id="245" value="&lt;h1&gt;AG&amp;nbsp; &amp;nbsp;&lt;/h1&gt;" style="text;html=1;strokeColor=#666666;fillColor=#f5f5f5;spacing=5;spacingTop=-20;whiteSpace=wrap;overflow=hidden;rounded=0;fontColor=#333333;" parent="1" vertex="1">
                    <mxGeometry x="1100" y="1260" width="320" height="39" as="geometry"/>
                </mxCell>
                <mxCell id="246" value="Team Viewer" style="text;html=1;strokeColor=none;fillColor=none;align=center;verticalAlign=middle;whiteSpace=wrap;rounded=0;" parent="1" vertex="1">
                    <mxGeometry x="1340" y="1264" width="60" height="30" as="geometry"/>
                </mxCell>
                <mxCell id="247" value="Matchup Analyzer" style="text;html=1;strokeColor=none;fillColor=none;align=center;verticalAlign=middle;whiteSpace=wrap;rounded=0;" parent="1" vertex="1">
                    <mxGeometry x="1260" y="1263" width="60" height="30" as="geometry"/>
                </mxCell>
                <mxCell id="248" value="Data&lt;div&gt;Lab&lt;/div&gt;" style="text;html=1;strokeColor=none;fillColor=none;align=center;verticalAlign=middle;whiteSpace=wrap;rounded=0;" parent="1" vertex="1">
                    <mxGeometry x="1170" y="1263" width="60" height="30" as="geometry"/>
                </mxCell>
                <mxCell id="249" value="Context: Upper East | Mode: Fill it out (64% complete)" style="verticalLabelPosition=middle;verticalAlign=middle;html=1;shape=mxgraph.basic.patternFillRect;fillStyle=hor;step=5;fillStrokeWidth=0.2;fillStrokeColor=#dddddd;rounded=0;labelPosition=center;align=center;" parent="1" vertex="1">
                    <mxGeometry x="1107.5" y="1728.44" width="300" height="35.13" as="geometry"/>
                </mxCell>
                <mxCell id="285" value="" style="rounded=1;whiteSpace=wrap;html=1;" parent="1" vertex="1">
                    <mxGeometry x="1121" y="1396.22" width="120" height="29.08" as="geometry"/>
                </mxCell>
                <mxCell id="286" value="16" style="text;html=1;strokeColor=none;fillColor=none;align=center;verticalAlign=middle;whiteSpace=wrap;rounded=0;" parent="1" vertex="1">
                    <mxGeometry x="1121" y="1395.22" width="30" height="30" as="geometry"/>
                </mxCell>
                <mxCell id="287" value="UNC Wilmington" style="text;html=1;strokeColor=none;fillColor=none;align=left;verticalAlign=middle;whiteSpace=wrap;rounded=0;" parent="1" vertex="1">
                    <mxGeometry x="1148" y="1396.22" width="85" height="30" as="geometry"/>
                </mxCell>
                <mxCell id="288" value="" style="rounded=1;whiteSpace=wrap;html=1;" parent="1" vertex="1">
                    <mxGeometry x="1121" y="1446.44" width="120" height="29.08" as="geometry"/>
                </mxCell>
                <mxCell id="289" value="Round of 32&lt;div&gt;&lt;font color=&quot;#000000&quot;&gt;&lt;br&gt;&lt;/font&gt;&lt;div&gt;[Matchup] [Insights]&lt;/div&gt;&lt;/div&gt;" style="rounded=1;whiteSpace=wrap;html=1;" parent="1" vertex="1">
                    <mxGeometry x="1270" y="1442.44" width="120" height="60" as="geometry"/>
                </mxCell>
                <mxCell id="290" value="8" style="text;html=1;strokeColor=none;fillColor=none;align=center;verticalAlign=middle;whiteSpace=wrap;rounded=0;" parent="1" vertex="1">
                    <mxGeometry x="1121" y="1445.44" width="30" height="30" as="geometry"/>
                </mxCell>
                <mxCell id="291" value="Creighton" style="text;html=1;strokeColor=none;fillColor=none;align=center;verticalAlign=middle;whiteSpace=wrap;rounded=0;" parent="1" vertex="1">
                    <mxGeometry x="1145" y="1446.44" width="60" height="30" as="geometry"/>
                </mxCell>
                <mxCell id="292" value="" style="rounded=1;whiteSpace=wrap;html=1;" parent="1" vertex="1">
                    <mxGeometry x="1121" y="1491.74" width="120" height="29.08" as="geometry"/>
                </mxCell>
                <mxCell id="293" value="9" style="text;html=1;strokeColor=none;fillColor=none;align=center;verticalAlign=middle;whiteSpace=wrap;rounded=0;" parent="1" vertex="1">
                    <mxGeometry x="1121" y="1490.74" width="30" height="30" as="geometry"/>
                </mxCell>
                <mxCell id="294" value="Gonzaga" style="text;html=1;strokeColor=none;fillColor=none;align=left;verticalAlign=middle;whiteSpace=wrap;rounded=0;" parent="1" vertex="1">
                    <mxGeometry x="1146" y="1490.74" width="85" height="30" as="geometry"/>
                </mxCell>
                <mxCell id="295" value="" style="rounded=1;whiteSpace=wrap;html=1;" parent="1" vertex="1">
                    <mxGeometry x="1121" y="1541" width="120" height="29.08" as="geometry"/>
                </mxCell>
                <mxCell id="296" value="Round of 32&lt;div&gt;&lt;font color=&quot;#000000&quot;&gt;&lt;br&gt;&lt;/font&gt;&lt;div&gt;[Matchup] [Insights]&lt;/div&gt;&lt;/div&gt;" style="rounded=1;whiteSpace=wrap;html=1;" parent="1" vertex="1">
                    <mxGeometry x="1270" y="1550.08" width="120" height="60" as="geometry"/>
                </mxCell>
                <mxCell id="297" value="4" style="text;html=1;strokeColor=none;fillColor=none;align=center;verticalAlign=middle;whiteSpace=wrap;rounded=0;" parent="1" vertex="1">
                    <mxGeometry x="1121" y="1540" width="30" height="30" as="geometry"/>
                </mxCell>
                <mxCell id="298" value="Michigan" style="text;html=1;strokeColor=none;fillColor=none;align=left;verticalAlign=middle;whiteSpace=wrap;rounded=0;" parent="1" vertex="1">
                    <mxGeometry x="1148" y="1541" width="60" height="30" as="geometry"/>
                </mxCell>
                <mxCell id="299" value="" style="rounded=1;whiteSpace=wrap;html=1;" parent="1" vertex="1">
                    <mxGeometry x="1121" y="1586.3" width="120" height="29.08" as="geometry"/>
                </mxCell>
                <mxCell id="300" value="13" style="text;html=1;strokeColor=none;fillColor=none;align=center;verticalAlign=middle;whiteSpace=wrap;rounded=0;" parent="1" vertex="1">
                    <mxGeometry x="1121" y="1585.3" width="30" height="30" as="geometry"/>
                </mxCell>
                <mxCell id="301" value="Some team" style="text;html=1;strokeColor=none;fillColor=none;align=left;verticalAlign=middle;whiteSpace=wrap;rounded=0;" parent="1" vertex="1">
                    <mxGeometry x="1148" y="1586.3" width="85" height="30" as="geometry"/>
                </mxCell>
                <mxCell id="302" value="" style="rounded=1;whiteSpace=wrap;html=1;" parent="1" vertex="1">
                    <mxGeometry x="1121" y="1636.52" width="120" height="29.08" as="geometry"/>
                </mxCell>
                <mxCell id="303" value="Round of 32&lt;div&gt;&lt;font color=&quot;#000000&quot;&gt;&lt;br&gt;&lt;/font&gt;&lt;div&gt;[Matchup] [Insights]&lt;/div&gt;&lt;/div&gt;" style="rounded=1;whiteSpace=wrap;html=1;" parent="1" vertex="1">
                    <mxGeometry x="1270" y="1632.52" width="120" height="60" as="geometry"/>
                </mxCell>
                <mxCell id="304" value="5" style="text;html=1;strokeColor=none;fillColor=none;align=center;verticalAlign=middle;whiteSpace=wrap;rounded=0;" parent="1" vertex="1">
                    <mxGeometry x="1121" y="1635.52" width="30" height="30" as="geometry"/>
                </mxCell>
                <mxCell id="305" value="another team" style="text;html=1;strokeColor=none;fillColor=none;align=center;verticalAlign=middle;whiteSpace=wrap;rounded=0;" parent="1" vertex="1">
                    <mxGeometry x="1145" y="1636.52" width="60" height="30" as="geometry"/>
                </mxCell>
                <mxCell id="306" value="" style="rounded=1;whiteSpace=wrap;html=1;" parent="1" vertex="1">
                    <mxGeometry x="1121" y="1681.82" width="120" height="29.08" as="geometry"/>
                </mxCell>
                <mxCell id="307" value="12" style="text;html=1;strokeColor=none;fillColor=none;align=center;verticalAlign=middle;whiteSpace=wrap;rounded=0;" parent="1" vertex="1">
                    <mxGeometry x="1121" y="1680.82" width="30" height="30" as="geometry"/>
                </mxCell>
                <mxCell id="308" value="blah blah state" style="text;html=1;strokeColor=none;fillColor=none;align=left;verticalAlign=middle;whiteSpace=wrap;rounded=0;" parent="1" vertex="1">
                    <mxGeometry x="1146" y="1680.82" width="85" height="30" as="geometry"/>
                </mxCell>
                <mxCell id="309" value="East Sweet 16" style="shape=singleArrow;whiteSpace=wrap;html=1;" parent="1" vertex="1">
                    <mxGeometry x="1352.5" y="1520" width="55" height="18.72" as="geometry"/>
                </mxCell>
                <mxCell id="310" value="" style="rounded=1;whiteSpace=wrap;html=1;" parent="1" vertex="1">
                    <mxGeometry x="1747" y="1241.74" width="320" height="580" as="geometry"/>
                </mxCell>
                <mxCell id="311" value="selectedSlot = &#39;east.R1&#39;&lt;div&gt;panel: {&lt;/div&gt;&lt;div&gt;data: {...},&lt;/div&gt;&lt;div&gt;view: &#39;closed&#39;&lt;/div&gt;&lt;div&gt;}&lt;/div&gt;" style="text;html=1;strokeColor=none;fillColor=none;align=center;verticalAlign=middle;whiteSpace=wrap;rounded=0;" parent="1" vertex="1">
                    <mxGeometry x="1838" y="1189.74" width="140" height="30" as="geometry"/>
                </mxCell>
                <mxCell id="312" value="" style="rounded=1;whiteSpace=wrap;html=1;" parent="1" vertex="1">
                    <mxGeometry x="1768" y="1370.66" width="120" height="29.08" as="geometry"/>
                </mxCell>
                <mxCell id="313" value="Round of 32&lt;div&gt;&lt;font color=&quot;#000000&quot;&gt;&lt;br&gt;&lt;/font&gt;&lt;div&gt;[Matchup] [Insights]&lt;/div&gt;&lt;/div&gt;" style="rounded=1;whiteSpace=wrap;html=1;" parent="1" vertex="1">
                    <mxGeometry x="1917" y="1379.74" width="120" height="60" as="geometry"/>
                </mxCell>
                <mxCell id="314" value="1" style="text;html=1;strokeColor=none;fillColor=none;align=center;verticalAlign=middle;whiteSpace=wrap;rounded=0;" parent="1" vertex="1">
                    <mxGeometry x="1768" y="1369.66" width="30" height="30" as="geometry"/>
                </mxCell>
                <mxCell id="315" value="Alabama" style="text;html=1;strokeColor=none;fillColor=none;align=left;verticalAlign=middle;whiteSpace=wrap;rounded=0;" parent="1" vertex="1">
                    <mxGeometry x="1795" y="1370.66" width="60" height="30" as="geometry"/>
                </mxCell>
                <mxCell id="316" value="East Rounds 2/3" style="text;html=1;strokeColor=none;fillColor=none;align=center;verticalAlign=middle;whiteSpace=wrap;rounded=0;" parent="1" vertex="1">
                    <mxGeometry x="1857.5" y="1329.74" width="101" height="30" as="geometry"/>
                </mxCell>
                <mxCell id="317" value="&lt;h1&gt;AG&amp;nbsp; &amp;nbsp;&lt;/h1&gt;" style="text;html=1;strokeColor=#666666;fillColor=#f5f5f5;spacing=5;spacingTop=-20;whiteSpace=wrap;overflow=hidden;rounded=0;fontColor=#333333;" parent="1" vertex="1">
                    <mxGeometry x="1747" y="1270.74" width="320" height="40" as="geometry"/>
                </mxCell>
                <mxCell id="318" value="Team Viewer" style="text;html=1;strokeColor=none;fillColor=none;align=center;verticalAlign=middle;whiteSpace=wrap;rounded=0;" parent="1" vertex="1">
                    <mxGeometry x="1987" y="1275.74" width="60" height="30" as="geometry"/>
                </mxCell>
                <mxCell id="319" value="Matchup Analyzer" style="text;html=1;strokeColor=none;fillColor=none;align=center;verticalAlign=middle;whiteSpace=wrap;rounded=0;" parent="1" vertex="1">
                    <mxGeometry x="1907" y="1274.74" width="60" height="30" as="geometry"/>
                </mxCell>
                <mxCell id="320" value="Data&lt;div&gt;Lab&lt;/div&gt;" style="text;html=1;strokeColor=none;fillColor=none;align=center;verticalAlign=middle;whiteSpace=wrap;rounded=0;" parent="1" vertex="1">
                    <mxGeometry x="1817" y="1274.74" width="60" height="30" as="geometry"/>
                </mxCell>
                <mxCell id="321" value="Context: Upper East | Insights: Adj Eff | Model: base" style="verticalLabelPosition=middle;verticalAlign=middle;html=1;shape=mxgraph.basic.patternFillRect;fillStyle=hor;step=5;fillStrokeWidth=0.2;fillStrokeColor=#dddddd;rounded=0;labelPosition=center;align=center;" parent="1" vertex="1">
                    <mxGeometry x="1757" y="1739.74" width="300" height="35.13" as="geometry"/>
                </mxCell>
                <mxCell id="322" value="" style="rounded=1;whiteSpace=wrap;html=1;" parent="1" vertex="1">
                    <mxGeometry x="1768" y="1415.96" width="120" height="29.08" as="geometry"/>
                </mxCell>
                <mxCell id="323" value="16" style="text;html=1;strokeColor=none;fillColor=none;align=center;verticalAlign=middle;whiteSpace=wrap;rounded=0;" parent="1" vertex="1">
                    <mxGeometry x="1768" y="1414.96" width="30" height="30" as="geometry"/>
                </mxCell>
                <mxCell id="324" value="UNC Wilmington" style="text;html=1;strokeColor=none;fillColor=none;align=left;verticalAlign=middle;whiteSpace=wrap;rounded=0;" parent="1" vertex="1">
                    <mxGeometry x="1795" y="1415.96" width="85" height="30" as="geometry"/>
                </mxCell>
                <mxCell id="325" value="" style="rounded=1;whiteSpace=wrap;html=1;" parent="1" vertex="1">
                    <mxGeometry x="1768" y="1466.18" width="120" height="29.08" as="geometry"/>
                </mxCell>
                <mxCell id="326" value="Round of 32&lt;div&gt;&lt;font color=&quot;#000000&quot;&gt;&lt;br&gt;&lt;/font&gt;&lt;div&gt;[Matchup] [Insights]&lt;/div&gt;&lt;/div&gt;" style="rounded=1;whiteSpace=wrap;html=1;" parent="1" vertex="1">
                    <mxGeometry x="1917" y="1462.18" width="120" height="60" as="geometry"/>
                </mxCell>
                <mxCell id="327" value="8" style="text;html=1;strokeColor=none;fillColor=none;align=center;verticalAlign=middle;whiteSpace=wrap;rounded=0;" parent="1" vertex="1">
                    <mxGeometry x="1768" y="1465.18" width="30" height="30" as="geometry"/>
                </mxCell>
                <mxCell id="328" value="Creighton" style="text;html=1;strokeColor=none;fillColor=none;align=center;verticalAlign=middle;whiteSpace=wrap;rounded=0;" parent="1" vertex="1">
                    <mxGeometry x="1792" y="1466.18" width="60" height="30" as="geometry"/>
                </mxCell>
                <mxCell id="329" value="" style="rounded=1;whiteSpace=wrap;html=1;" parent="1" vertex="1">
                    <mxGeometry x="1768" y="1511.48" width="120" height="29.08" as="geometry"/>
                </mxCell>
                <mxCell id="330" value="9" style="text;html=1;strokeColor=none;fillColor=none;align=center;verticalAlign=middle;whiteSpace=wrap;rounded=0;" parent="1" vertex="1">
                    <mxGeometry x="1768" y="1510.48" width="30" height="30" as="geometry"/>
                </mxCell>
                <mxCell id="331" value="Gonzaga" style="text;html=1;strokeColor=none;fillColor=none;align=left;verticalAlign=middle;whiteSpace=wrap;rounded=0;" parent="1" vertex="1">
                    <mxGeometry x="1793" y="1510.48" width="85" height="30" as="geometry"/>
                </mxCell>
                <mxCell id="332" value="" style="rounded=1;whiteSpace=wrap;html=1;" parent="1" vertex="1">
                    <mxGeometry x="1768" y="1560.74" width="120" height="29.08" as="geometry"/>
                </mxCell>
                <mxCell id="333" value="Round of 32&lt;div&gt;&lt;font color=&quot;#000000&quot;&gt;&lt;br&gt;&lt;/font&gt;&lt;div&gt;[Matchup] [Insights]&lt;/div&gt;&lt;/div&gt;" style="rounded=1;whiteSpace=wrap;html=1;" parent="1" vertex="1">
                    <mxGeometry x="1917" y="1569.82" width="120" height="60" as="geometry"/>
                </mxCell>
                <mxCell id="334" value="4" style="text;html=1;strokeColor=none;fillColor=none;align=center;verticalAlign=middle;whiteSpace=wrap;rounded=0;" parent="1" vertex="1">
                    <mxGeometry x="1768" y="1559.74" width="30" height="30" as="geometry"/>
                </mxCell>
                <mxCell id="335" value="Michigan" style="text;html=1;strokeColor=none;fillColor=none;align=left;verticalAlign=middle;whiteSpace=wrap;rounded=0;" parent="1" vertex="1">
                    <mxGeometry x="1795" y="1560.74" width="60" height="30" as="geometry"/>
                </mxCell>
                <mxCell id="336" value="" style="rounded=1;whiteSpace=wrap;html=1;" parent="1" vertex="1">
                    <mxGeometry x="1768" y="1606.04" width="120" height="29.08" as="geometry"/>
                </mxCell>
                <mxCell id="337" value="13" style="text;html=1;strokeColor=none;fillColor=none;align=center;verticalAlign=middle;whiteSpace=wrap;rounded=0;" parent="1" vertex="1">
                    <mxGeometry x="1768" y="1605.04" width="30" height="30" as="geometry"/>
                </mxCell>
                <mxCell id="338" value="Some team" style="text;html=1;strokeColor=none;fillColor=none;align=left;verticalAlign=middle;whiteSpace=wrap;rounded=0;" parent="1" vertex="1">
                    <mxGeometry x="1795" y="1606.04" width="85" height="30" as="geometry"/>
                </mxCell>
                <mxCell id="339" value="" style="rounded=1;whiteSpace=wrap;html=1;" parent="1" vertex="1">
                    <mxGeometry x="1768" y="1656.26" width="120" height="29.08" as="geometry"/>
                </mxCell>
                <mxCell id="340" value="Round of 32&lt;div&gt;&lt;font color=&quot;#000000&quot;&gt;&lt;br&gt;&lt;/font&gt;&lt;div&gt;[Matchup] [Insights]&lt;/div&gt;&lt;/div&gt;" style="rounded=1;whiteSpace=wrap;html=1;" parent="1" vertex="1">
                    <mxGeometry x="1917" y="1652.26" width="120" height="60" as="geometry"/>
                </mxCell>
                <mxCell id="341" value="5" style="text;html=1;strokeColor=none;fillColor=none;align=center;verticalAlign=middle;whiteSpace=wrap;rounded=0;" parent="1" vertex="1">
                    <mxGeometry x="1768" y="1655.26" width="30" height="30" as="geometry"/>
                </mxCell>
                <mxCell id="342" value="another team" style="text;html=1;strokeColor=none;fillColor=none;align=center;verticalAlign=middle;whiteSpace=wrap;rounded=0;" parent="1" vertex="1">
                    <mxGeometry x="1792" y="1656.26" width="60" height="30" as="geometry"/>
                </mxCell>
                <mxCell id="343" value="" style="rounded=1;whiteSpace=wrap;html=1;" parent="1" vertex="1">
                    <mxGeometry x="1768" y="1701.56" width="120" height="29.08" as="geometry"/>
                </mxCell>
                <mxCell id="344" value="12" style="text;html=1;strokeColor=none;fillColor=none;align=center;verticalAlign=middle;whiteSpace=wrap;rounded=0;" parent="1" vertex="1">
                    <mxGeometry x="1768" y="1700.56" width="30" height="30" as="geometry"/>
                </mxCell>
                <mxCell id="345" value="blah blah state" style="text;html=1;strokeColor=none;fillColor=none;align=left;verticalAlign=middle;whiteSpace=wrap;rounded=0;" parent="1" vertex="1">
                    <mxGeometry x="1793" y="1700.56" width="85" height="30" as="geometry"/>
                </mxCell>
                <mxCell id="346" value="East Sweet 16" style="shape=singleArrow;whiteSpace=wrap;html=1;" parent="1" vertex="1">
                    <mxGeometry x="1999.5" y="1539.74" width="55" height="18.72" as="geometry"/>
                </mxCell>
                <mxCell id="347" value="" style="rounded=1;whiteSpace=wrap;html=1;" parent="1" vertex="1">
                    <mxGeometry x="1790" y="1366.61" width="278" height="403.39" as="geometry"/>
                </mxCell>
                <mxCell id="348" value="" style="verticalLabelPosition=bottom;verticalAlign=top;html=1;shape=mxgraph.basic.x;labelBackgroundColor=#FF3333;labelBorderColor=#FF0000;fillColor=#f8cecc;strokeColor=#b85450;" parent="1" vertex="1">
                    <mxGeometry x="2008" y="1409.74" width="38" height="29.26" as="geometry"/>
                </mxCell>
                <mxCell id="350" value="&lt;h1 style=&quot;margin-top: 0px;&quot;&gt;Matchup&lt;/h1&gt;&lt;h1 style=&quot;margin-top: 0px;&quot;&gt;Creighton vs Gonzaga&lt;br&gt;&lt;/h1&gt;" style="text;html=1;whiteSpace=wrap;overflow=hidden;rounded=0;fontSize=9;align=center;spacing=0;spacingTop=-4;" parent="1" vertex="1">
                    <mxGeometry x="1800" y="1394" width="201" height="66" as="geometry"/>
                </mxCell>
                <mxCell id="353" value="&lt;h1 style=&quot;margin-top: 0px;&quot;&gt;Profile Comp&amp;nbsp;&lt;/h1&gt;&lt;h1 style=&quot;margin-top: 0px;&quot;&gt;or&lt;/h1&gt;&lt;h1 style=&quot;margin-top: 0px;&quot;&gt;Stats&amp;nbsp;&lt;/h1&gt;&lt;div&gt;&lt;br&gt;&lt;/div&gt;&lt;h1 style=&quot;margin-top: 0px;&quot;&gt;or&lt;/h1&gt;&lt;h1 style=&quot;margin-top: 0px;&quot;&gt;Predictions&lt;/h1&gt;" style="text;html=1;whiteSpace=wrap;overflow=hidden;rounded=0;" parent="1" vertex="1">
                    <mxGeometry x="1820" y="1482.42" width="200" height="235.76" as="geometry"/>
                </mxCell>
                <mxCell id="354" value="" style="rounded=1;whiteSpace=wrap;html=1;" parent="1" vertex="1">
                    <mxGeometry x="2190" y="1252" width="320" height="580" as="geometry"/>
                </mxCell>
                <mxCell id="355" value="" style="rounded=1;whiteSpace=wrap;html=1;" parent="1" vertex="1">
                    <mxGeometry x="2211" y="1380.92" width="120" height="29.08" as="geometry"/>
                </mxCell>
                <mxCell id="356" value="Round of 32&lt;div&gt;&lt;font color=&quot;#000000&quot;&gt;&lt;br&gt;&lt;/font&gt;&lt;div&gt;[Matchup] [Insights]&lt;/div&gt;&lt;/div&gt;" style="rounded=1;whiteSpace=wrap;html=1;" parent="1" vertex="1">
                    <mxGeometry x="2360" y="1390" width="120" height="60" as="geometry"/>
                </mxCell>
                <mxCell id="357" value="1" style="text;html=1;strokeColor=none;fillColor=none;align=center;verticalAlign=middle;whiteSpace=wrap;rounded=0;" parent="1" vertex="1">
                    <mxGeometry x="2211" y="1379.92" width="30" height="30" as="geometry"/>
                </mxCell>
                <mxCell id="358" value="Alabama" style="text;html=1;strokeColor=none;fillColor=none;align=left;verticalAlign=middle;whiteSpace=wrap;rounded=0;" parent="1" vertex="1">
                    <mxGeometry x="2238" y="1380.92" width="60" height="30" as="geometry"/>
                </mxCell>
                <mxCell id="359" value="East Rounds 2/3" style="text;html=1;strokeColor=none;fillColor=none;align=center;verticalAlign=middle;whiteSpace=wrap;rounded=0;" parent="1" vertex="1">
                    <mxGeometry x="2300.5" y="1340" width="101" height="30" as="geometry"/>
                </mxCell>
                <mxCell id="360" value="&lt;h1&gt;AG&amp;nbsp; &amp;nbsp;&lt;/h1&gt;" style="text;html=1;strokeColor=#666666;fillColor=#f5f5f5;spacing=5;spacingTop=-20;whiteSpace=wrap;overflow=hidden;rounded=0;fontColor=#333333;" parent="1" vertex="1">
                    <mxGeometry x="2190" y="1281" width="320" height="40" as="geometry"/>
                </mxCell>
                <mxCell id="361" value="Team Viewer" style="text;html=1;strokeColor=none;fillColor=none;align=center;verticalAlign=middle;whiteSpace=wrap;rounded=0;" parent="1" vertex="1">
                    <mxGeometry x="2430" y="1286" width="60" height="30" as="geometry"/>
                </mxCell>
                <mxCell id="362" value="Matchup Analyzer" style="text;html=1;strokeColor=none;fillColor=none;align=center;verticalAlign=middle;whiteSpace=wrap;rounded=0;" parent="1" vertex="1">
                    <mxGeometry x="2350" y="1285" width="60" height="30" as="geometry"/>
                </mxCell>
                <mxCell id="363" value="Data&lt;div&gt;Lab&lt;/div&gt;" style="text;html=1;strokeColor=none;fillColor=none;align=center;verticalAlign=middle;whiteSpace=wrap;rounded=0;" parent="1" vertex="1">
                    <mxGeometry x="2260" y="1285" width="60" height="30" as="geometry"/>
                </mxCell>
                <mxCell id="364" value="Context: Upper East | Insights: Adj Eff | Model: base" style="verticalLabelPosition=middle;verticalAlign=middle;html=1;shape=mxgraph.basic.patternFillRect;fillStyle=hor;step=5;fillStrokeWidth=0.2;fillStrokeColor=#dddddd;rounded=0;labelPosition=center;align=center;" parent="1" vertex="1">
                    <mxGeometry x="2200" y="1750" width="300" height="35.13" as="geometry"/>
                </mxCell>
                <mxCell id="365" value="" style="rounded=1;whiteSpace=wrap;html=1;" parent="1" vertex="1">
                    <mxGeometry x="2211" y="1426.22" width="120" height="29.08" as="geometry"/>
                </mxCell>
                <mxCell id="366" value="16" style="text;html=1;strokeColor=none;fillColor=none;align=center;verticalAlign=middle;whiteSpace=wrap;rounded=0;" parent="1" vertex="1">
                    <mxGeometry x="2211" y="1425.22" width="30" height="30" as="geometry"/>
                </mxCell>
                <mxCell id="367" value="UNC Wilmington" style="text;html=1;strokeColor=none;fillColor=none;align=left;verticalAlign=middle;whiteSpace=wrap;rounded=0;" parent="1" vertex="1">
                    <mxGeometry x="2238" y="1426.22" width="85" height="30" as="geometry"/>
                </mxCell>
                <mxCell id="368" value="" style="rounded=1;whiteSpace=wrap;html=1;" parent="1" vertex="1">
                    <mxGeometry x="2211" y="1476.44" width="120" height="29.08" as="geometry"/>
                </mxCell>
                <mxCell id="369" value="Round of 32&lt;div&gt;&lt;font color=&quot;#000000&quot;&gt;&lt;br&gt;&lt;/font&gt;&lt;div&gt;[Matchup] [Insights]&lt;/div&gt;&lt;/div&gt;" style="rounded=1;whiteSpace=wrap;html=1;" parent="1" vertex="1">
                    <mxGeometry x="2360" y="1472.44" width="120" height="60" as="geometry"/>
                </mxCell>
                <mxCell id="370" value="8" style="text;html=1;strokeColor=none;fillColor=none;align=center;verticalAlign=middle;whiteSpace=wrap;rounded=0;" parent="1" vertex="1">
                    <mxGeometry x="2211" y="1475.44" width="30" height="30" as="geometry"/>
                </mxCell>
                <mxCell id="371" value="Creighton" style="text;html=1;strokeColor=none;fillColor=none;align=center;verticalAlign=middle;whiteSpace=wrap;rounded=0;" parent="1" vertex="1">
                    <mxGeometry x="2235" y="1476.44" width="60" height="30" as="geometry"/>
                </mxCell>
                <mxCell id="372" value="" style="rounded=1;whiteSpace=wrap;html=1;" parent="1" vertex="1">
                    <mxGeometry x="2211" y="1521.74" width="120" height="29.08" as="geometry"/>
                </mxCell>
                <mxCell id="373" value="9" style="text;html=1;strokeColor=none;fillColor=none;align=center;verticalAlign=middle;whiteSpace=wrap;rounded=0;" parent="1" vertex="1">
                    <mxGeometry x="2211" y="1520.74" width="30" height="30" as="geometry"/>
                </mxCell>
                <mxCell id="374" value="Gonzaga" style="text;html=1;strokeColor=none;fillColor=none;align=left;verticalAlign=middle;whiteSpace=wrap;rounded=0;" parent="1" vertex="1">
                    <mxGeometry x="2236" y="1520.74" width="85" height="30" as="geometry"/>
                </mxCell>
                <mxCell id="375" value="" style="rounded=1;whiteSpace=wrap;html=1;" parent="1" vertex="1">
                    <mxGeometry x="2211" y="1571" width="120" height="29.08" as="geometry"/>
                </mxCell>
                <mxCell id="376" value="Round of 32&lt;div&gt;&lt;font color=&quot;#000000&quot;&gt;&lt;br&gt;&lt;/font&gt;&lt;div&gt;[Matchup] [Insights]&lt;/div&gt;&lt;/div&gt;" style="rounded=1;whiteSpace=wrap;html=1;" parent="1" vertex="1">
                    <mxGeometry x="2360" y="1580.08" width="120" height="60" as="geometry"/>
                </mxCell>
                <mxCell id="377" value="4" style="text;html=1;strokeColor=none;fillColor=none;align=center;verticalAlign=middle;whiteSpace=wrap;rounded=0;" parent="1" vertex="1">
                    <mxGeometry x="2211" y="1570" width="30" height="30" as="geometry"/>
                </mxCell>
                <mxCell id="378" value="Michigan" style="text;html=1;strokeColor=none;fillColor=none;align=left;verticalAlign=middle;whiteSpace=wrap;rounded=0;" parent="1" vertex="1">
                    <mxGeometry x="2238" y="1571" width="60" height="30" as="geometry"/>
                </mxCell>
                <mxCell id="379" value="" style="rounded=1;whiteSpace=wrap;html=1;" parent="1" vertex="1">
                    <mxGeometry x="2211" y="1616.3" width="120" height="29.08" as="geometry"/>
                </mxCell>
                <mxCell id="380" value="13" style="text;html=1;strokeColor=none;fillColor=none;align=center;verticalAlign=middle;whiteSpace=wrap;rounded=0;" parent="1" vertex="1">
                    <mxGeometry x="2211" y="1615.3" width="30" height="30" as="geometry"/>
                </mxCell>
                <mxCell id="381" value="Some team" style="text;html=1;strokeColor=none;fillColor=none;align=left;verticalAlign=middle;whiteSpace=wrap;rounded=0;" parent="1" vertex="1">
                    <mxGeometry x="2238" y="1616.3" width="85" height="30" as="geometry"/>
                </mxCell>
                <mxCell id="382" value="" style="rounded=1;whiteSpace=wrap;html=1;" parent="1" vertex="1">
                    <mxGeometry x="2211" y="1666.52" width="120" height="29.08" as="geometry"/>
                </mxCell>
                <mxCell id="383" value="Round of 32&lt;div&gt;&lt;font color=&quot;#000000&quot;&gt;&lt;br&gt;&lt;/font&gt;&lt;div&gt;[Matchup] [Insights]&lt;/div&gt;&lt;/div&gt;" style="rounded=1;whiteSpace=wrap;html=1;" parent="1" vertex="1">
                    <mxGeometry x="2360" y="1662.52" width="120" height="60" as="geometry"/>
                </mxCell>
                <mxCell id="384" value="5" style="text;html=1;strokeColor=none;fillColor=none;align=center;verticalAlign=middle;whiteSpace=wrap;rounded=0;" parent="1" vertex="1">
                    <mxGeometry x="2211" y="1665.52" width="30" height="30" as="geometry"/>
                </mxCell>
                <mxCell id="385" value="another team" style="text;html=1;strokeColor=none;fillColor=none;align=center;verticalAlign=middle;whiteSpace=wrap;rounded=0;" parent="1" vertex="1">
                    <mxGeometry x="2235" y="1666.52" width="60" height="30" as="geometry"/>
                </mxCell>
                <mxCell id="386" value="" style="rounded=1;whiteSpace=wrap;html=1;" parent="1" vertex="1">
                    <mxGeometry x="2211" y="1711.82" width="120" height="29.08" as="geometry"/>
                </mxCell>
                <mxCell id="387" value="12" style="text;html=1;strokeColor=none;fillColor=none;align=center;verticalAlign=middle;whiteSpace=wrap;rounded=0;" parent="1" vertex="1">
                    <mxGeometry x="2211" y="1710.82" width="30" height="30" as="geometry"/>
                </mxCell>
                <mxCell id="388" value="blah blah state" style="text;html=1;strokeColor=none;fillColor=none;align=left;verticalAlign=middle;whiteSpace=wrap;rounded=0;" parent="1" vertex="1">
                    <mxGeometry x="2236" y="1710.82" width="85" height="30" as="geometry"/>
                </mxCell>
                <mxCell id="389" value="East Sweet 16" style="shape=singleArrow;whiteSpace=wrap;html=1;" parent="1" vertex="1">
                    <mxGeometry x="2442.5" y="1550" width="55" height="18.72" as="geometry"/>
                </mxCell>
                <mxCell id="390" value="" style="rounded=1;whiteSpace=wrap;html=1;" parent="1" vertex="1">
                    <mxGeometry x="2233" y="1376.87" width="278" height="403.39" as="geometry"/>
                </mxCell>
                <mxCell id="391" value="" style="verticalLabelPosition=bottom;verticalAlign=top;html=1;shape=mxgraph.basic.x;labelBackgroundColor=#FF3333;labelBorderColor=#FF0000;fillColor=#f8cecc;strokeColor=#b85450;" parent="1" vertex="1">
                    <mxGeometry x="2451" y="1420" width="38" height="29.26" as="geometry"/>
                </mxCell>
                <mxCell id="392" value="&lt;h1 style=&quot;margin-top: 0px;&quot;&gt;Insights&amp;nbsp;&lt;/h1&gt;&lt;h1 style=&quot;margin-top: 0px;&quot;&gt;East Round of 32&lt;/h1&gt;" style="text;html=1;whiteSpace=wrap;overflow=hidden;rounded=0;fontSize=9;align=center;spacing=0;spacingTop=-4;" parent="1" vertex="1">
                    <mxGeometry x="2243" y="1404.26" width="201" height="66" as="geometry"/>
                </mxCell>
                <mxCell id="393" value="&lt;h1 style=&quot;margin-top: 0px;&quot;&gt;Profiles&lt;/h1&gt;" style="text;html=1;whiteSpace=wrap;overflow=hidden;rounded=0;" parent="1" vertex="1">
                    <mxGeometry x="2263" y="1492.68" width="200" height="235.76" as="geometry"/>
                </mxCell>
                <mxCell id="394" value="" style="rounded=1;whiteSpace=wrap;html=1;dashed=1;fillColor=none;" vertex="1" parent="1">
                    <mxGeometry x="1101" y="1920" width="149" height="1450" as="geometry"/>
                </mxCell>
                <mxCell id="604" style="edgeStyle=none;html=1;exitX=0;exitY=0.5;exitDx=0;exitDy=0;" edge="1" parent="1" source="395" target="602">
                    <mxGeometry relative="1" as="geometry"/>
                </mxCell>
                <mxCell id="395" value="Round 64" style="text;html=1;align=center;verticalAlign=middle;whiteSpace=wrap;rounded=0;strokeColor=default;" vertex="1" parent="1">
                    <mxGeometry x="1120" y="1900" width="105.5" height="30" as="geometry"/>
                </mxCell>
                <mxCell id="396" value="" style="rounded=1;whiteSpace=wrap;html=1;dashed=1;fillColor=none;" vertex="1" parent="1">
                    <mxGeometry x="1270" y="1920" width="149" height="1490" as="geometry"/>
                </mxCell>
                <mxCell id="397" value="Round 32" style="text;html=1;align=center;verticalAlign=middle;whiteSpace=wrap;rounded=0;" vertex="1" parent="1">
                    <mxGeometry x="1293.44" y="1900" width="100" height="30" as="geometry"/>
                </mxCell>
                <mxCell id="398" value="" style="rounded=1;whiteSpace=wrap;html=1;dashed=1;fillColor=none;" vertex="1" parent="1">
                    <mxGeometry x="1440" y="1920" width="149" height="1470" as="geometry"/>
                </mxCell>
                <mxCell id="399" value="Sweet 16" style="text;html=1;align=center;verticalAlign=middle;whiteSpace=wrap;rounded=0;" vertex="1" parent="1">
                    <mxGeometry x="1460" y="1880" width="100" height="30" as="geometry"/>
                </mxCell>
                <mxCell id="400" value="" style="rounded=1;whiteSpace=wrap;html=1;dashed=1;fillColor=none;" vertex="1" parent="1">
                    <mxGeometry x="1606" y="1920" width="149" height="730" as="geometry"/>
                </mxCell>
                <mxCell id="402" value="Elite 8" style="text;html=1;align=center;verticalAlign=middle;whiteSpace=wrap;rounded=0;" vertex="1" parent="1">
                    <mxGeometry x="1626" y="1880" width="100" height="30" as="geometry"/>
                </mxCell>
                <mxCell id="403" value="W1" style="rounded=1;whiteSpace=wrap;html=1;" vertex="1" parent="1">
                    <mxGeometry x="1113" y="1930" width="120" height="40" as="geometry"/>
                </mxCell>
                <mxCell id="407" value="R2W1" style="rounded=1;whiteSpace=wrap;html=1;" vertex="1" parent="1">
                    <mxGeometry x="1283.44" y="1970" width="120" height="90" as="geometry"/>
                </mxCell>
                <mxCell id="409" value="W16" style="rounded=1;whiteSpace=wrap;html=1;" vertex="1" parent="1">
                    <mxGeometry x="1113" y="1970" width="120" height="40" as="geometry"/>
                </mxCell>
                <mxCell id="410" value="W8" style="rounded=1;whiteSpace=wrap;html=1;" vertex="1" parent="1">
                    <mxGeometry x="1115" y="2020" width="120" height="40" as="geometry"/>
                </mxCell>
                <mxCell id="411" value="W9" style="rounded=1;whiteSpace=wrap;html=1;" vertex="1" parent="1">
                    <mxGeometry x="1115" y="2060" width="120" height="40" as="geometry"/>
                </mxCell>
                <mxCell id="418" value="" style="rounded=1;whiteSpace=wrap;html=1;dashed=1;fillColor=none;" vertex="1" parent="1">
                    <mxGeometry x="1809" y="2160" width="149" height="420" as="geometry"/>
                </mxCell>
                <mxCell id="419" value="FInal 4" style="text;html=1;align=center;verticalAlign=middle;whiteSpace=wrap;rounded=0;" vertex="1" parent="1">
                    <mxGeometry x="1795" y="1880" width="100" height="30" as="geometry"/>
                </mxCell>
                <mxCell id="420" value="R4W1" style="rounded=1;whiteSpace=wrap;html=1;" vertex="1" parent="1">
                    <mxGeometry x="1828" y="2220" width="120" height="40" as="geometry"/>
                </mxCell>
                <mxCell id="422" value="" style="rounded=1;whiteSpace=wrap;html=1;dashed=1;fillColor=none;" vertex="1" parent="1">
                    <mxGeometry x="1976.5" y="2160" width="149" height="420" as="geometry"/>
                </mxCell>
                <mxCell id="423" value="Championship" style="text;html=1;align=center;verticalAlign=middle;whiteSpace=wrap;rounded=0;" vertex="1" parent="1">
                    <mxGeometry x="1962.5" y="1880" width="100" height="30" as="geometry"/>
                </mxCell>
                <mxCell id="424" value="R5WX" style="rounded=1;whiteSpace=wrap;html=1;" vertex="1" parent="1">
                    <mxGeometry x="1995.5" y="2220" width="120" height="40" as="geometry"/>
                </mxCell>
                <mxCell id="425" value="R5YZ" style="rounded=1;whiteSpace=wrap;html=1;" vertex="1" parent="1">
                    <mxGeometry x="1992.5" y="2270" width="120" height="40" as="geometry"/>
                </mxCell>
                <mxCell id="426" value="R4X1" style="rounded=1;whiteSpace=wrap;html=1;" vertex="1" parent="1">
                    <mxGeometry x="1826" y="2280" width="120" height="40" as="geometry"/>
                </mxCell>
                <mxCell id="427" value="" style="rounded=1;whiteSpace=wrap;html=1;dashed=1;fillColor=none;" vertex="1" parent="1">
                    <mxGeometry x="2132.5" y="2290" width="149" height="420" as="geometry"/>
                </mxCell>
                <mxCell id="428" value="R6CH" style="rounded=1;whiteSpace=wrap;html=1;" vertex="1" parent="1">
                    <mxGeometry x="2151.5" y="2350" width="120" height="40" as="geometry"/>
                </mxCell>
                <mxCell id="429" value="Champion" style="text;html=1;align=center;verticalAlign=middle;whiteSpace=wrap;rounded=0;" vertex="1" parent="1">
                    <mxGeometry x="2157" y="1880" width="100" height="30" as="geometry"/>
                </mxCell>
                <mxCell id="436" value="W5" style="rounded=1;whiteSpace=wrap;html=1;" vertex="1" parent="1">
                    <mxGeometry x="1113" y="2110" width="120" height="40" as="geometry"/>
                </mxCell>
                <mxCell id="438" value="R2W4" style="rounded=1;whiteSpace=wrap;html=1;" vertex="1" parent="1">
                    <mxGeometry x="1285.56" y="2150" width="120" height="90" as="geometry"/>
                </mxCell>
                <mxCell id="439" value="W12" style="rounded=1;whiteSpace=wrap;html=1;" vertex="1" parent="1">
                    <mxGeometry x="1113" y="2150" width="120" height="40" as="geometry"/>
                </mxCell>
                <mxCell id="440" value="W4" style="rounded=1;whiteSpace=wrap;html=1;" vertex="1" parent="1">
                    <mxGeometry x="1115" y="2200" width="120" height="40" as="geometry"/>
                </mxCell>
                <mxCell id="441" value="W13" style="rounded=1;whiteSpace=wrap;html=1;" vertex="1" parent="1">
                    <mxGeometry x="1115" y="2240" width="120" height="40" as="geometry"/>
                </mxCell>
                <mxCell id="451" value="R4Y1" style="rounded=1;whiteSpace=wrap;html=1;" vertex="1" parent="1">
                    <mxGeometry x="1828" y="2340" width="120" height="40" as="geometry"/>
                </mxCell>
                <mxCell id="452" value="R4Z1" style="rounded=1;whiteSpace=wrap;html=1;" vertex="1" parent="1">
                    <mxGeometry x="1826" y="2400" width="120" height="40" as="geometry"/>
                </mxCell>
                <mxCell id="453" value="W1" style="rounded=1;whiteSpace=wrap;html=1;" vertex="1" parent="1">
                    <mxGeometry x="1117" y="2300" width="120" height="40" as="geometry"/>
                </mxCell>
                <mxCell id="454" value="W16" style="rounded=1;whiteSpace=wrap;html=1;" vertex="1" parent="1">
                    <mxGeometry x="1117" y="2340" width="120" height="40" as="geometry"/>
                </mxCell>
                <mxCell id="455" value="W8" style="rounded=1;whiteSpace=wrap;html=1;" vertex="1" parent="1">
                    <mxGeometry x="1119" y="2390" width="120" height="40" as="geometry"/>
                </mxCell>
                <mxCell id="456" value="W9" style="rounded=1;whiteSpace=wrap;html=1;" vertex="1" parent="1">
                    <mxGeometry x="1119" y="2430" width="120" height="40" as="geometry"/>
                </mxCell>
                <mxCell id="457" value="W7" style="rounded=1;whiteSpace=wrap;html=1;" vertex="1" parent="1">
                    <mxGeometry x="1117" y="2480" width="120" height="40" as="geometry"/>
                </mxCell>
                <mxCell id="458" value="W10" style="rounded=1;whiteSpace=wrap;html=1;" vertex="1" parent="1">
                    <mxGeometry x="1117" y="2520" width="120" height="40" as="geometry"/>
                </mxCell>
                <mxCell id="459" value="W2" style="rounded=1;whiteSpace=wrap;html=1;" vertex="1" parent="1">
                    <mxGeometry x="1119" y="2570" width="120" height="40" as="geometry"/>
                </mxCell>
                <mxCell id="460" value="W15" style="rounded=1;whiteSpace=wrap;html=1;" vertex="1" parent="1">
                    <mxGeometry x="1119" y="2610" width="120" height="40" as="geometry"/>
                </mxCell>
                <mxCell id="483" value="R2W4" style="rounded=1;whiteSpace=wrap;html=1;" vertex="1" parent="1">
                    <mxGeometry x="1281" y="2323" width="120" height="60" as="geometry"/>
                </mxCell>
                <mxCell id="484" value="R2W4" style="rounded=1;whiteSpace=wrap;html=1;" vertex="1" parent="1">
                    <mxGeometry x="1282.44" y="2390" width="120" height="60" as="geometry"/>
                </mxCell>
                <mxCell id="485" value="R2W4" style="rounded=1;whiteSpace=wrap;html=1;" vertex="1" parent="1">
                    <mxGeometry x="1285.56" y="2495" width="120" height="60" as="geometry"/>
                </mxCell>
                <mxCell id="486" value="R2W4" style="rounded=1;whiteSpace=wrap;html=1;" vertex="1" parent="1">
                    <mxGeometry x="1285.56" y="2560" width="120" height="60" as="geometry"/>
                </mxCell>
                <mxCell id="487" value="W1" style="rounded=1;whiteSpace=wrap;html=1;" vertex="1" parent="1">
                    <mxGeometry x="1119" y="2680" width="120" height="40" as="geometry"/>
                </mxCell>
                <mxCell id="488" value="W16" style="rounded=1;whiteSpace=wrap;html=1;" vertex="1" parent="1">
                    <mxGeometry x="1119" y="2720" width="120" height="40" as="geometry"/>
                </mxCell>
                <mxCell id="489" value="W8" style="rounded=1;whiteSpace=wrap;html=1;" vertex="1" parent="1">
                    <mxGeometry x="1121" y="2770" width="120" height="40" as="geometry"/>
                </mxCell>
                <mxCell id="490" value="W9" style="rounded=1;whiteSpace=wrap;html=1;" vertex="1" parent="1">
                    <mxGeometry x="1121" y="2810" width="120" height="40" as="geometry"/>
                </mxCell>
                <mxCell id="491" value="W5" style="rounded=1;whiteSpace=wrap;html=1;" vertex="1" parent="1">
                    <mxGeometry x="1119" y="2860" width="120" height="40" as="geometry"/>
                </mxCell>
                <mxCell id="492" value="W12" style="rounded=1;whiteSpace=wrap;html=1;" vertex="1" parent="1">
                    <mxGeometry x="1119" y="2900" width="120" height="40" as="geometry"/>
                </mxCell>
                <mxCell id="493" value="W4" style="rounded=1;whiteSpace=wrap;html=1;" vertex="1" parent="1">
                    <mxGeometry x="1121" y="2950" width="120" height="40" as="geometry"/>
                </mxCell>
                <mxCell id="494" value="W13" style="rounded=1;whiteSpace=wrap;html=1;" vertex="1" parent="1">
                    <mxGeometry x="1121" y="2990" width="120" height="40" as="geometry"/>
                </mxCell>
                <mxCell id="495" value="W1" style="rounded=1;whiteSpace=wrap;html=1;" vertex="1" parent="1">
                    <mxGeometry x="1123" y="3050" width="120" height="40" as="geometry"/>
                </mxCell>
                <mxCell id="496" value="W16" style="rounded=1;whiteSpace=wrap;html=1;" vertex="1" parent="1">
                    <mxGeometry x="1123" y="3090" width="120" height="40" as="geometry"/>
                </mxCell>
                <mxCell id="497" value="W8" style="rounded=1;whiteSpace=wrap;html=1;" vertex="1" parent="1">
                    <mxGeometry x="1125" y="3140" width="120" height="40" as="geometry"/>
                </mxCell>
                <mxCell id="498" value="W9" style="rounded=1;whiteSpace=wrap;html=1;" vertex="1" parent="1">
                    <mxGeometry x="1125" y="3180" width="120" height="40" as="geometry"/>
                </mxCell>
                <mxCell id="499" value="W7" style="rounded=1;whiteSpace=wrap;html=1;" vertex="1" parent="1">
                    <mxGeometry x="1123" y="3230" width="120" height="40" as="geometry"/>
                </mxCell>
                <mxCell id="500" value="W10" style="rounded=1;whiteSpace=wrap;html=1;" vertex="1" parent="1">
                    <mxGeometry x="1123" y="3270" width="120" height="40" as="geometry"/>
                </mxCell>
                <mxCell id="501" value="W2" style="rounded=1;whiteSpace=wrap;html=1;" vertex="1" parent="1">
                    <mxGeometry x="1125" y="3320" width="120" height="40" as="geometry"/>
                </mxCell>
                <mxCell id="502" value="W15" style="rounded=1;whiteSpace=wrap;html=1;" vertex="1" parent="1">
                    <mxGeometry x="1125" y="3360" width="120" height="40" as="geometry"/>
                </mxCell>
                <mxCell id="503" value="R2W4" style="rounded=1;whiteSpace=wrap;html=1;" vertex="1" parent="1">
                    <mxGeometry x="1277.88" y="2693" width="120" height="60" as="geometry"/>
                </mxCell>
                <mxCell id="504" value="R2W4" style="rounded=1;whiteSpace=wrap;html=1;" vertex="1" parent="1">
                    <mxGeometry x="1279.3200000000002" y="2760" width="120" height="60" as="geometry"/>
                </mxCell>
                <mxCell id="505" value="R2W4" style="rounded=1;whiteSpace=wrap;html=1;" vertex="1" parent="1">
                    <mxGeometry x="1282.44" y="2865" width="120" height="60" as="geometry"/>
                </mxCell>
                <mxCell id="506" value="R2W4" style="rounded=1;whiteSpace=wrap;html=1;" vertex="1" parent="1">
                    <mxGeometry x="1282.44" y="2930" width="120" height="60" as="geometry"/>
                </mxCell>
                <mxCell id="507" value="R2W4" style="rounded=1;whiteSpace=wrap;html=1;" vertex="1" parent="1">
                    <mxGeometry x="1280.16" y="3073" width="120" height="60" as="geometry"/>
                </mxCell>
                <mxCell id="508" value="R2W4" style="rounded=1;whiteSpace=wrap;html=1;" vertex="1" parent="1">
                    <mxGeometry x="1281.6000000000001" y="3140" width="120" height="60" as="geometry"/>
                </mxCell>
                <mxCell id="509" value="R2W4" style="rounded=1;whiteSpace=wrap;html=1;" vertex="1" parent="1">
                    <mxGeometry x="1284.72" y="3245" width="120" height="60" as="geometry"/>
                </mxCell>
                <mxCell id="510" value="R2W4" style="rounded=1;whiteSpace=wrap;html=1;" vertex="1" parent="1">
                    <mxGeometry x="1284.72" y="3310" width="120" height="60" as="geometry"/>
                </mxCell>
                <mxCell id="512" value="W Name" style="rounded=1;whiteSpace=wrap;html=1;" vertex="1" parent="1">
                    <mxGeometry x="1285.56" y="2460" width="120" height="25" as="geometry"/>
                </mxCell>
                <mxCell id="514" value="LOC = &#39;W2&#39;" style="rounded=1;whiteSpace=wrap;html=1;fillColor=none;strokeColor=#FF3333;verticalAlign=top;" vertex="1" parent="1">
                    <mxGeometry x="1080" y="2300" width="355" height="370" as="geometry"/>
                </mxCell>
                <mxCell id="515" value="LOC = &#39;Y1&#39;" style="rounded=1;whiteSpace=wrap;html=1;fillColor=none;strokeColor=#FF3333;verticalAlign=top;" vertex="1" parent="1">
                    <mxGeometry x="1072.5" y="2670" width="355" height="370" as="geometry"/>
                </mxCell>
                <mxCell id="516" value="W1" style="rounded=1;whiteSpace=wrap;html=1;" vertex="1" parent="1">
                    <mxGeometry x="1486.5" y="2690" width="120" height="40" as="geometry"/>
                </mxCell>
                <mxCell id="517" value="W16" style="rounded=1;whiteSpace=wrap;html=1;" vertex="1" parent="1">
                    <mxGeometry x="1486.5" y="2730" width="120" height="40" as="geometry"/>
                </mxCell>
                <mxCell id="518" value="W8" style="rounded=1;whiteSpace=wrap;html=1;" vertex="1" parent="1">
                    <mxGeometry x="1488.5" y="2780" width="120" height="40" as="geometry"/>
                </mxCell>
                <mxCell id="519" value="W9" style="rounded=1;whiteSpace=wrap;html=1;" vertex="1" parent="1">
                    <mxGeometry x="1488.5" y="2820" width="120" height="40" as="geometry"/>
                </mxCell>
                <mxCell id="520" value="W5" style="rounded=1;whiteSpace=wrap;html=1;" vertex="1" parent="1">
                    <mxGeometry x="1486.5" y="2870" width="120" height="40" as="geometry"/>
                </mxCell>
                <mxCell id="521" value="W12" style="rounded=1;whiteSpace=wrap;html=1;" vertex="1" parent="1">
                    <mxGeometry x="1486.5" y="2910" width="120" height="40" as="geometry"/>
                </mxCell>
                <mxCell id="522" value="W4" style="rounded=1;whiteSpace=wrap;html=1;" vertex="1" parent="1">
                    <mxGeometry x="1488.5" y="2960" width="120" height="40" as="geometry"/>
                </mxCell>
                <mxCell id="523" value="W13" style="rounded=1;whiteSpace=wrap;html=1;" vertex="1" parent="1">
                    <mxGeometry x="1488.5" y="3000" width="120" height="40" as="geometry"/>
                </mxCell>
                <mxCell id="524" value="R2W4" style="rounded=1;whiteSpace=wrap;html=1;" vertex="1" parent="1">
                    <mxGeometry x="1645.38" y="2703" width="120" height="60" as="geometry"/>
                </mxCell>
                <mxCell id="525" value="R2W4" style="rounded=1;whiteSpace=wrap;html=1;" vertex="1" parent="1">
                    <mxGeometry x="1646.8200000000002" y="2770" width="120" height="60" as="geometry"/>
                </mxCell>
                <mxCell id="526" value="R2W4" style="rounded=1;whiteSpace=wrap;html=1;" vertex="1" parent="1">
                    <mxGeometry x="1649.94" y="2875" width="120" height="60" as="geometry"/>
                </mxCell>
                <mxCell id="527" value="R2W4" style="rounded=1;whiteSpace=wrap;html=1;" vertex="1" parent="1">
                    <mxGeometry x="1649.94" y="2940" width="120" height="60" as="geometry"/>
                </mxCell>
                <mxCell id="528" value="LOC = &#39;16WX&#39;" style="rounded=1;whiteSpace=wrap;html=1;fillColor=none;strokeColor=#FF3333;verticalAlign=top;" vertex="1" parent="1">
                    <mxGeometry x="1440" y="2680" width="355" height="370" as="geometry"/>
                </mxCell>
                <mxCell id="529" value="W1" style="rounded=1;whiteSpace=wrap;html=1;" vertex="1" parent="1">
                    <mxGeometry x="1484.5" y="3060" width="120" height="40" as="geometry"/>
                </mxCell>
                <mxCell id="530" value="W16" style="rounded=1;whiteSpace=wrap;html=1;" vertex="1" parent="1">
                    <mxGeometry x="1484.5" y="3100" width="120" height="40" as="geometry"/>
                </mxCell>
                <mxCell id="531" value="W8" style="rounded=1;whiteSpace=wrap;html=1;" vertex="1" parent="1">
                    <mxGeometry x="1486.5" y="3150" width="120" height="40" as="geometry"/>
                </mxCell>
                <mxCell id="532" value="W9" style="rounded=1;whiteSpace=wrap;html=1;" vertex="1" parent="1">
                    <mxGeometry x="1486.5" y="3190" width="120" height="40" as="geometry"/>
                </mxCell>
                <mxCell id="533" value="W5" style="rounded=1;whiteSpace=wrap;html=1;" vertex="1" parent="1">
                    <mxGeometry x="1484.5" y="3240" width="120" height="40" as="geometry"/>
                </mxCell>
                <mxCell id="534" value="W12" style="rounded=1;whiteSpace=wrap;html=1;" vertex="1" parent="1">
                    <mxGeometry x="1484.5" y="3280" width="120" height="40" as="geometry"/>
                </mxCell>
                <mxCell id="535" value="W4" style="rounded=1;whiteSpace=wrap;html=1;" vertex="1" parent="1">
                    <mxGeometry x="1486.5" y="3330" width="120" height="40" as="geometry"/>
                </mxCell>
                <mxCell id="536" value="W13" style="rounded=1;whiteSpace=wrap;html=1;" vertex="1" parent="1">
                    <mxGeometry x="1486.5" y="3370" width="120" height="40" as="geometry"/>
                </mxCell>
                <mxCell id="537" value="R2W4" style="rounded=1;whiteSpace=wrap;html=1;" vertex="1" parent="1">
                    <mxGeometry x="1643.38" y="3073" width="120" height="60" as="geometry"/>
                </mxCell>
                <mxCell id="538" value="R2W4" style="rounded=1;whiteSpace=wrap;html=1;" vertex="1" parent="1">
                    <mxGeometry x="1644.8200000000002" y="3140" width="120" height="60" as="geometry"/>
                </mxCell>
                <mxCell id="539" value="R2W4" style="rounded=1;whiteSpace=wrap;html=1;" vertex="1" parent="1">
                    <mxGeometry x="1647.94" y="3245" width="120" height="60" as="geometry"/>
                </mxCell>
                <mxCell id="540" value="R2W4" style="rounded=1;whiteSpace=wrap;html=1;" vertex="1" parent="1">
                    <mxGeometry x="1647.94" y="3310" width="120" height="60" as="geometry"/>
                </mxCell>
                <mxCell id="541" value="LOC=&#39;16YZ&#39;" style="rounded=1;whiteSpace=wrap;html=1;fillColor=none;strokeColor=#FF3333;verticalAlign=top;" vertex="1" parent="1">
                    <mxGeometry x="1438" y="3050" width="355" height="370" as="geometry"/>
                </mxCell>
                <mxCell id="589" value="R2W4" style="rounded=1;whiteSpace=wrap;html=1;" vertex="1" parent="1">
                    <mxGeometry x="1845.7200000000003" y="2883" width="120" height="60" as="geometry"/>
                </mxCell>
                <mxCell id="590" value="R2W4" style="rounded=1;whiteSpace=wrap;html=1;" vertex="1" parent="1">
                    <mxGeometry x="1847.1600000000003" y="2950" width="120" height="60" as="geometry"/>
                </mxCell>
                <mxCell id="591" value="R2W4" style="rounded=1;whiteSpace=wrap;html=1;" vertex="1" parent="1">
                    <mxGeometry x="1850.2800000000002" y="3055" width="120" height="60" as="geometry"/>
                </mxCell>
                <mxCell id="592" value="R2W4" style="rounded=1;whiteSpace=wrap;html=1;" vertex="1" parent="1">
                    <mxGeometry x="1850.2800000000002" y="3120" width="120" height="60" as="geometry"/>
                </mxCell>
                <mxCell id="594" value="R2W4" style="rounded=1;whiteSpace=wrap;html=1;" vertex="1" parent="1">
                    <mxGeometry x="2010.0000000000002" y="2983" width="120" height="60" as="geometry"/>
                </mxCell>
                <mxCell id="595" value="R2W4" style="rounded=1;whiteSpace=wrap;html=1;" vertex="1" parent="1">
                    <mxGeometry x="2011.4400000000003" y="3050" width="120" height="60" as="geometry"/>
                </mxCell>
                <mxCell id="598" value="LOC=&#39;CH&#39;" style="rounded=1;whiteSpace=wrap;html=1;fillColor=none;strokeColor=#FF3333;verticalAlign=top;" vertex="1" parent="1">
                    <mxGeometry x="2157" y="2850" width="355" height="370" as="geometry"/>
                </mxCell>
                <mxCell id="599" value="R6CH" style="rounded=1;whiteSpace=wrap;html=1;" vertex="1" parent="1">
                    <mxGeometry x="2281.5" y="3010" width="120" height="60" as="geometry"/>
                </mxCell>
                <mxCell id="602" value="5vh" style="text;html=1;align=center;verticalAlign=middle;whiteSpace=wrap;rounded=0;" vertex="1" parent="1">
                    <mxGeometry x="980" y="1900" width="60" height="30" as="geometry"/>
                </mxCell>
                <mxCell id="603" value="Text" style="text;html=1;align=center;verticalAlign=middle;whiteSpace=wrap;rounded=0;" vertex="1" parent="1">
                    <mxGeometry x="980" y="2065" width="60" height="30" as="geometry"/>
                </mxCell>
            </root>
        </mxGraphModel>
    </diagram>
</mxfile>